<?xml version="1.0" encoding="UTF-8"?>
<svg width="19px" height="19px" viewBox="0 0 19 19" version="1.1" xmlns="http://www.w3.org/2000/svg" xmlns:xlink="http://www.w3.org/1999/xlink">
    <!-- Generator: Sketch 53 (72520) - https://sketchapp.com -->
    <title>ic/analytics</title>
    <desc>Created with Sketch.</desc>
    <g id="ic/analytics" stroke="none" stroke-width="1" fill="none" fill-rule="evenodd">
        <path d="M17.5644172,4.98114918 L11.752389,11.4323674 C11.6034804,11.5976526 11.3410255,11.6040082 11.1838303,11.4461358 L8.7616894,9.01355897 L3.74199803,14.157762 C3.59511862,14.3082847 3.35048463,14.3145969 3.19559272,14.1718607 C3.0407008,14.0291245 3.03420538,13.7913912 3.18108479,13.6408685 L8.47841344,8.21214147 C8.62977883,8.05702152 8.88365999,8.05577658 9.03662853,8.2094042 L11.4473721,10.6305346 L16.9261364,4.54923164 L14.7234883,5.0344837 C14.5153109,5.08034601 14.3082918,4.95352406 14.2610983,4.75121896 C14.2139047,4.54891385 14.3444079,4.34773442 14.5525853,4.30187211 L17.8654688,3.57203083 C18.1072735,3.51876029 18.3374233,3.69739022 18.3374233,3.93833662 L18.3374233,6.8144666 C18.3374233,7.02190504 18.16438,7.19006712 17.9509202,7.19006712 C17.7374605,7.19006712 17.5644172,7.02190504 17.5644172,6.8144666 L17.5644172,4.98114918 Z M17.6134969,17.1899754 C17.8269567,17.1899754 18,17.3581375 18,17.5655759 C18,17.7730144 17.8269567,17.9411765 17.6134969,17.9411765 L0,17.9411765 L0,1.37560052 C0,1.16816208 0.173043318,1 0.386503067,1 C0.599962817,1 0.773006135,1.16816208 0.773006135,1.37560052 L0.773006135,17.1899754 L17.6134969,17.1899754 Z" id="Combined-Shape" fill="#FFFFFF" fill-rule="nonzero"></path>
    </g>
</svg>