<?xml version="1.0" encoding="UTF-8"?>
<svg width="30px" height="12px" viewBox="0 0 30 12" version="1.1" xmlns="http://www.w3.org/2000/svg" xmlns:xlink="http://www.w3.org/1999/xlink">
    <!-- Generator: Sketch 54.1 (76490) - https://sketchapp.com -->
    <title>Combined Shape</title>
    <desc>Created with Sketch.</desc>
    <g id="Movies" stroke="none" stroke-width="1" fill="none" fill-rule="evenodd">
        <g id="Movies-/-Upload-(Step-1)-3" transform="translate(-643.000000, -120.000000)" fill="#000000" fill-rule="nonzero">
            <path d="M645.90721,125.283487 L672.318182,125.283487 C672.69474,125.283487 673,125.599518 673,125.989361 C673,126.379205 672.69474,126.695236 672.318182,126.695236 L645.877067,126.695236 L651.565911,130.710845 C651.877034,130.930458 651.957284,131.369603 651.745155,131.691702 C651.533026,132.013802 651.108847,132.096883 650.797725,131.87727 L643.297725,126.583213 C642.900758,126.303004 642.900758,125.696996 643.297725,125.416787 L650.797725,120.12273 C651.108847,119.903117 651.533026,119.986198 651.745155,120.308298 C651.957284,120.630397 651.877034,121.069542 651.565911,121.289155 L645.90721,125.283487 Z" id="Combined-Shape"></path>
        </g>
    </g>
</svg>