<?xml version="1.0" encoding="UTF-8"?>
<svg width="24px" height="24px" viewBox="0 0 24 24" version="1.1" xmlns="http://www.w3.org/2000/svg" xmlns:xlink="http://www.w3.org/1999/xlink">
    <!-- Generator: Sketch 53 (72520) - https://sketchapp.com -->
    <title>ic / delete</title>
    <desc>Created with Sketch.</desc>
    <g id="ic-/-delete" stroke="none" stroke-width="1" fill="none" fill-rule="evenodd">
        <g id="Group-2" transform="translate(6.000000, 6.000000)" fill="#979797" fill-rule="nonzero">
            <path d="M5.71404521,5.00693843 L10.074537,0.646446609 C10.5459415,0.175042089 11.2530483,0.88214887 10.7816438,1.35355339 L6.0675986,6.0675986 C5.87233645,6.26286074 5.55575396,6.26286074 5.36049182,6.0675986 L0.646446609,1.35355339 C0.175042089,0.88214887 0.88214887,0.175042089 1.35355339,0.646446609 L5.71404521,5.00693843 Z M5.71404521,6.42115199 L1.35355339,10.7816438 C0.88214887,11.2530483 0.175042089,10.5459415 0.646446609,10.074537 L5.36049182,5.36049182 C5.55575396,5.16522967 5.87233645,5.16522967 6.0675986,5.36049182 L10.7816438,10.074537 C11.2530483,10.5459415 10.5459415,11.2530483 10.074537,10.7816438 L5.71404521,6.42115199 Z" id="Combined-Shape"></path>
        </g>
    </g>
</svg>