<?xml version="1.0" encoding="UTF-8"?>
<svg width="50px" height="50px" viewBox="0 0 50 50" version="1.1" xmlns="http://www.w3.org/2000/svg" xmlns:xlink="http://www.w3.org/1999/xlink">
    <!-- Generator: sketchtool 54.1 (76490) - https://sketchapp.com -->
    <title>430A9F24-C5C9-4796-9C3D-D016DC1FB2D2@1.00x</title>
    <desc>Created with sketchtool.</desc>
    <g id="Dashboard" stroke="none" stroke-width="1" fill="none" fill-rule="evenodd">
        <g id="Dashboard-" transform="translate(-979.000000, -240.000000)" fill-rule="nonzero">
            <g id="Group-8" transform="translate(979.000000, 240.000000)">
                <g id="noun_Video_68841-Copy-2" fill="#FFF8E4">
                    <path d="M25,0 C11.19375,0 0,11.19375 0,25 C0,38.80625 11.19375,50 25,50 C38.80625,50 50,38.80625 50,25 C50,11.19375 38.80625,0 25,0 L25,0 Z" id="Shape"></path>
                </g>
                <path d="M31.1328125,29.9804687 C31.1328125,31.3973792 30.7060885,32.5284049 29.8526278,33.3735795 C28.9991671,34.2187542 27.826712,34.7200513 26.3352273,34.8774858 L26.3352273,36.3254616 C26.3352273,36.8368546 25.9206614,37.2514205 25.4092685,37.2514205 L25.4092685,37.2514205 C24.8978755,37.2514205 24.4833097,36.8368546 24.4833097,36.3254616 L24.4833097,34.8899148 C23.5718468,34.7904825 22.7473995,34.5377624 22.0099432,34.1317472 C21.2724868,33.7257319 20.6779734,33.125004 20.2263849,32.3295455 C20.0150675,31.9573166 19.8408323,31.3544356 19.7036793,30.5209024 L19.7036891,30.5209008 C19.612139,29.9645148 19.988963,29.4392588 20.545349,29.3477088 C20.600144,29.3386926 20.6555832,29.3341619 20.7111151,29.3341619 L20.7111151,29.3341619 C21.361242,29.3341619 21.9269422,29.7790373 22.0802102,30.4108394 C22.2874386,31.2650634 22.5540247,31.8279869 22.8799716,32.0996094 C23.5511397,32.6589161 24.3673011,32.9385653 25.3284801,32.9385653 C26.4222356,32.9385653 27.2756835,32.675488 27.8888494,32.1493253 C28.5020154,31.6231626 28.8085938,30.9085036 28.8085938,30.0053267 C28.8085938,29.2430123 28.5413734,28.5967119 28.0069247,28.0664062 C27.472476,27.5361006 26.5755271,27.0596612 25.3160511,26.6370739 C23.6505599,26.1316263 22.3890313,25.4563252 21.5314276,24.6111506 C20.6738238,23.7659759 20.2450284,22.6432362 20.2450284,21.2428977 C20.2450284,20.3314348 20.4252468,19.5277023 20.7856889,18.8316761 C21.1461311,18.1356499 21.659857,17.5763515 22.3268821,17.1537642 C22.9939072,16.7311769 23.7831394,16.466028 24.6946023,16.3583097 L24.6946023,14.5747514 C24.6946023,14.0564942 25.1147328,13.6363636 25.6329901,13.6363636 L25.6329901,13.6363636 C26.1512473,13.6363636 26.5713778,14.0564942 26.5713778,14.5747514 L26.5713778,16.3707386 C27.9717163,16.5530312 29.055098,17.1392588 29.8215554,18.1294389 C30.2255864,18.6514034 30.5497483,19.593426 30.794041,20.9555069 L30.7940403,20.9555071 C30.890984,21.4960278 30.5313939,22.0127949 29.9908731,22.1097386 C29.9329399,22.1201291 29.8741985,22.1253551 29.8153409,22.1253551 L29.8153409,22.1253551 C29.177927,22.1253551 28.6341996,21.6639467 28.5304888,21.0350266 C28.4674567,20.652818 28.3923687,20.3554533 28.3052202,20.1429332 C28.0690684,19.5670544 27.7210605,19.1154728 27.2611861,18.7881747 C26.8013116,18.4608767 26.2482277,18.2972301 25.6019176,18.2972301 C24.5993084,18.2972301 23.8432199,18.558236 23.3336293,19.0802557 C22.8240386,19.6022753 22.5692472,20.31072 22.5692472,21.2056108 C22.5692472,21.7524885 22.6769639,22.2227135 22.8924006,22.6162997 C23.1078373,23.009886 23.4724169,23.3641083 23.9861506,23.6789773 C24.4998842,23.9938463 25.2124718,24.3045676 26.1239347,24.6111506 C27.2425482,24.9757357 28.1664263,25.3879593 28.8955966,25.8478338 C29.6247669,26.3077083 30.1799223,26.8732211 30.5610795,27.5443892 C30.9422368,28.2155573 31.1328125,29.0275757 31.1328125,29.9804687 Z" id="$" fill="#FFCB3D"></path>
            </g>
        </g>
    </g>
</svg>