<?xml version="1.0" encoding="UTF-8"?>
<svg width="24px" height="24px" viewBox="0 0 24 24" version="1.1" xmlns="http://www.w3.org/2000/svg" xmlns:xlink="http://www.w3.org/1999/xlink">
    <!-- Generator: Sketch 54.1 (76490) - https://sketchapp.com -->
    <title>ico/dark/eye-visible</title>
    <desc>Created with Sketch.</desc>
    <g id="ico/dark/eye-visible" stroke="none" stroke-width="1" fill="none" fill-rule="evenodd">
        <path d="M11.7314029,17.3614543 C15.6138558,17.3614543 19.2466289,15.384174 21.2913653,12.1762703 C19.25611,8.97778753 15.6225744,7 11.7314029,7 C7.84813677,7 4.21991784,8.97386087 2.17580958,12.1810171 C4.21024641,15.3823281 7.84296088,17.3614543 11.7314029,17.3614543 Z M11.7314029,6 C16.0749594,6 20.1232794,8.26641079 22.3062409,11.9168892 L22.467279,12.1764019 L22.3062409,12.4359146 C20.1232794,16.0907183 16.0704861,18.3614543 11.7314029,18.3614543 C7.39231959,18.3614543 3.34399962,16.0950435 1.16103814,12.4402398 L1,12.1807271 L1.16103814,11.9212144 C3.34399962,8.26641079 7.39231959,6 11.7314029,6 Z M12,15 C13.6568542,15 15,13.6568542 15,12 C15,10.3431458 13.6568542,9 12,9 C10.3431458,9 9,10.3431458 9,12 C9,13.6568542 10.3431458,15 12,15 Z M12,16 C9.790861,16 8,14.209139 8,12 C8,9.790861 9.790861,8 12,8 C14.209139,8 16,9.790861 16,12 C16,14.209139 14.209139,16 12,16 Z" id="Combined-Shape-Copy" fill="#000000" fill-rule="nonzero"></path>
    </g>
</svg>