<?xml version="1.0" encoding="UTF-8"?>
<svg width="50px" height="50px" viewBox="0 0 50 50" version="1.1" xmlns="http://www.w3.org/2000/svg" xmlns:xlink="http://www.w3.org/1999/xlink">
    <!-- Generator: Sketch 53 (72520) - https://sketchapp.com -->
    <title>Group 5 Copy</title>
    <desc>Created with Sketch.</desc>
    <g id="Dashboard" stroke="none" stroke-width="1" fill="none" fill-rule="evenodd">
        <g id="Dashboard-" transform="translate(-435.000000, -367.000000)">
            <g id="Group-5-Copy" transform="translate(435.000000, 367.000000)">
                <path d="M25,0 C11.19375,0 0,11.19375 0,25 C0,38.80625 11.19375,50 25,50 C38.80625,50 50,38.80625 50,25 C50,11.19375 38.80625,0 25,0 L25,0 Z" id="Combined-Shape" fill="#EDFAFF" fill-rule="nonzero"></path>
                <path d="M25.3409091,26.4772727 L36.8196778,26.4772727 C37.5100337,26.4772727 38.0696778,27.0369168 38.0696778,27.7272727 C38.0696778,28.4176287 37.5100337,28.9772727 36.8196778,28.9772727 L24.0924051,28.9772727 C23.4020491,28.9772727 22.8424051,28.4176287 22.8424051,27.7272727 C22.8424051,27.6510885 22.8492205,27.5764962 22.862275,27.5040721 C22.8482457,27.4290999 22.8409091,27.3517704 22.8409091,27.2727273 L22.8409091,14.5454545 C22.8409091,13.8550986 23.4005532,13.2954545 24.0909091,13.2954545 C24.781265,13.2954545 25.3409091,13.8550986 25.3409091,14.5454545 L25.3409091,26.4772727 Z" id="Combined-Shape" fill="#88D2F1" fill-rule="nonzero"></path>
                <g id="Group-2" transform="translate(24.636364, 13.295455)"></g>
            </g>
        </g>
    </g>
</svg>