<?xml version="1.0" encoding="UTF-8"?>
<svg width="166px" height="44px" viewBox="0 0 166 44" version="1.1" xmlns="http://www.w3.org/2000/svg" xmlns:xlink="http://www.w3.org/1999/xlink">
    <!-- Generator: Sketch 53 (72520) - https://sketchapp.com -->
    <title>Group 2</title>
    <desc>Created with Sketch.</desc>
    <defs>
        <path d="M0.317813335,27.1899393 L0.317813335,0.428161886 L4.69232254,0.428161886 L9.9087875,19.3768147 L10.9520805,23.3381419 C11.2083292,22.3523689 11.5987975,20.922411 12.1234972,19.0482253 L17.3948723,0.428161886 L21.3117969,0.428161886 L21.3117969,27.1899393 L18.5113788,27.1899393 L18.5113788,4.79109832 L12.1051938,27.1899393 L9.48780962,27.1899393 L3.11823136,4.40774407 L3.11823136,27.1899393 L0.317813335,27.1899393 Z M26.5648686,27.1899393 L26.5648686,0.428161886 L29.4751069,0.428161886 L29.4751069,27.1899393 L26.5648686,27.1899393 Z M34.4719312,27.1899393 L34.4719312,0.428161886 L37.4553831,0.428161886 L49.023123,21.4396256 L49.023123,0.428161886 L51.8052376,0.428161886 L51.8052376,27.1899393 L48.8217857,27.1899393 L37.2723493,6.16022063 L37.2723493,27.1899393 L34.4719312,27.1899393 Z M57.2962533,27.1899393 L57.2962533,0.428161886 L60.2064917,0.428161886 L60.2064917,27.1899393 L57.2962533,27.1899393 Z M65.4961702,27.1899393 L65.4961702,0.428161886 L80.3402161,0.428161886 L80.3402161,3.58627068 L68.4064085,3.58627068 L68.4064085,11.8740244 L78.7295181,11.8740244 L78.7295181,15.0321332 L68.4064085,15.0321332 L68.4064085,27.1899393 L65.4961702,27.1899393 Z M83.8910729,27.1899393 L83.8910729,0.428161886 L86.8013113,0.428161886 L86.8013113,24.0318305 L97.6369157,24.0318305 L97.6369157,27.1899393 L83.8910729,27.1899393 Z M101.718571,27.1899393 L101.718571,0.428161886 L104.628809,0.428161886 L104.628809,27.1899393 L101.718571,27.1899393 Z M107.484137,27.1899393 L115.995212,13.2431467 L108.490823,0.428161886 L111.950163,0.428161886 L115.958605,7.29202841 C116.77616,8.70375269 117.361863,9.79903959 117.71573,10.577922 C118.19162,9.62865907 118.771222,8.61247623 119.454552,7.52934294 L123.902274,0.428161886 L127.050457,0.428161886 L119.326428,13.0423421 L127.654468,27.1899393 L124.067005,27.1899393 L118.521079,17.6425931 C118.216021,17.1071115 117.898765,16.5107886 117.569303,15.8536066 C117.069008,16.8272095 116.715146,17.4965515 116.507706,17.8616526 L110.980084,27.1899393 L107.484137,27.1899393 Z" id="path-1"></path>
    </defs>
    <g id="Symbols" stroke="none" stroke-width="1" fill="none" fill-rule="evenodd">
        <g id="Sidebar-/-Analytics" transform="translate(-26.000000, -36.000000)">
            <g id="Group-2" transform="translate(25.000000, 35.000000)">
                <path d="M41.9682617,42.4179688 C41.9386392,42.7506527 41.8457853,43.0445951 41.6896973,43.2998047 C41.5336092,43.5550143 41.3142918,43.7543938 41.0317383,43.8979492 C40.7491848,44.0415046 40.40967,44.1132812 40.0131836,44.1132812 C39.605304,44.1132812 39.2498388,44.0170094 38.9467773,43.8244629 C38.6437159,43.6319164 38.4101571,43.3579119 38.2460937,43.0024414 C38.0820304,42.6469709 38,42.2311222 38,41.7548828 L38,41.3618164 C38,40.885577 38.0837394,40.4697283 38.2512207,40.1142578 C38.418702,39.7587873 38.6568181,39.4842132 38.9655762,39.2905273 C39.2743342,39.0968415 39.6349263,39 40.0473633,39 C40.4370137,39 40.7696926,39.0723463 41.0454102,39.217041 C41.3211277,39.3617357 41.5358879,39.5633939 41.6896973,39.8220215 C41.8435066,40.0806491 41.9374998,40.3797184 41.9716797,40.7192383 L41.0898437,40.7192383 C41.0511066,40.3865543 40.9525561,40.1364754 40.7941895,39.9689941 C40.6358228,39.8015128 40.3868832,39.7177734 40.0473633,39.7177734 C39.6668275,39.7177734 39.3791514,39.8584784 39.1843262,40.1398926 C38.989501,40.4213067 38.8920898,40.826332 38.8920898,41.3549805 L38.8920898,41.7548828 C38.8920898,42.2744167 38.9826651,42.6777329 39.1638184,42.9648438 C39.3449716,43.2519546 39.6280905,43.3955078 40.0131836,43.3955078 C40.2501639,43.3955078 40.4432772,43.3584802 40.5925293,43.2844238 C40.7417813,43.2103675 40.8545732,43.1021329 40.9309082,42.9597168 C41.0072432,42.8173007 41.0590819,42.6367198 41.0864258,42.4179688 L41.9682617,42.4179688 Z M50.8692384,41.6831055 C50.8692384,42.1798527 50.7832204,42.6110822 50.6111817,42.9768066 C50.4391431,43.3425311 50.1970394,43.6233714 49.8848634,43.8193359 C49.5726873,44.0153005 49.2115256,44.1132812 48.8013673,44.1132812 C48.3957663,44.1132812 48.0357439,44.0153005 47.7212892,43.8193359 C47.4068345,43.6233714 47.1618825,43.3419615 46.9864259,42.9750977 C46.8109693,42.6082338 46.7232423,42.1775741 46.7232423,41.6831055 L46.7232423,41.4335938 C46.7232423,40.9391251 46.8103996,40.5084654 46.9847169,40.1416016 C47.1590342,39.7747377 47.4028468,39.4927581 47.7161622,39.2956543 C48.0294776,39.0985504 48.3889304,39 48.7945313,39 C49.2046896,39 49.5664211,39.0979808 49.8797364,39.2939453 C50.1930518,39.4899098 50.4362948,39.7713198 50.6094728,40.1381836 C50.7826507,40.5050474 50.8692384,40.9368465 50.8692384,41.4335938 L50.8692384,41.6831055 Z M49.9805665,41.4267578 C49.9805665,40.8776014 49.8774588,40.4577651 49.6712403,40.1672363 C49.4650219,39.8767075 49.1727884,39.7314453 48.7945313,39.7314453 C48.550715,39.7314453 48.3399424,39.7963861 48.1622071,39.9262695 C47.9844719,40.056153 47.8483241,40.248127 47.7537599,40.5021973 C47.6591956,40.7562675 47.6119142,41.0644513 47.6119142,41.4267578 L47.6119142,41.6831055 C47.6119142,42.045412 47.6597652,42.3541654 47.7554688,42.609375 C47.8511724,42.8645846 47.9884595,43.0576979 48.1673341,43.1887207 C48.3462087,43.3197435 48.557551,43.3852539 48.8013673,43.3852539 C49.1796244,43.3852539 49.4707185,43.239422 49.6746583,42.9477539 C49.8785981,42.6560858 49.9805665,42.2345405 49.9805665,41.6831055 L49.9805665,41.4267578 Z M58.9396486,44.0449219 L56.7487307,40.5449219 L56.7487307,44.0449219 L55.8634768,44.0449219 L55.8634768,39.0683594 L56.7487307,39.0683594 L58.9464846,42.5751953 L58.9464846,39.0683594 L59.8249025,39.0683594 L59.8249025,44.0449219 L58.9396486,44.0449219 Z M68.5994143,39.7827148 L67.0510745,39.7827148 L67.0510745,44.0449219 L66.1692386,44.0449219 L66.1692386,39.7827148 L64.6379886,39.7827148 L64.6379886,39.0683594 L68.5994143,39.0683594 L68.5994143,39.7827148 Z M76.6595707,43.3339844 L76.6595707,44.0449219 L73.3954105,44.0449219 L73.3954105,39.0683594 L76.6390629,39.0683594 L76.6390629,39.7827148 L74.2806644,39.7827148 L74.2806644,41.1328125 L76.3143559,41.1328125 L76.3143559,41.8300781 L74.2806644,41.8300781 L74.2806644,43.3339844 L76.6595707,43.3339844 Z M84.5795903,44.0449219 L82.3886724,40.5449219 L82.3886724,44.0449219 L81.5034184,44.0449219 L81.5034184,39.0683594 L82.3886724,39.0683594 L84.5864263,42.5751953 L84.5864263,39.0683594 L85.4648442,39.0683594 L85.4648442,44.0449219 L84.5795903,44.0449219 Z M94.239356,39.7827148 L92.6910162,39.7827148 L92.6910162,44.0449219 L91.8091803,44.0449219 L91.8091803,39.7827148 L90.2779303,39.7827148 L90.2779303,39.0683594 L94.239356,39.0683594 L94.239356,39.7827148 Z M106.675098,39.0683594 C107.051077,39.0683594 107.37635,39.1361484 107.650928,39.2717285 C107.925507,39.4073086 108.13457,39.595295 108.278126,39.8356934 C108.421681,40.0760917 108.493458,40.3500961 108.493458,40.6577148 C108.493458,40.9790055 108.422251,41.2558582 108.279835,41.4882812 C108.137419,41.7207043 107.930064,41.8984369 107.657764,42.0214844 C107.385465,42.1445319 107.057913,42.2060547 106.675098,42.2060547 L105.649708,42.2060547 L105.649708,44.0449219 L104.764454,44.0449219 L104.764454,39.0683594 L106.675098,39.0683594 Z M106.675098,41.4951172 C106.991832,41.4951172 107.22596,41.4210619 107.377491,41.2729492 C107.529022,41.1248365 107.604786,40.922039 107.604786,40.6645508 C107.604786,40.5050448 107.571746,40.3586432 107.505665,40.2253418 C107.439584,40.0920403 107.337046,39.9849451 107.198048,39.9040527 C107.05905,39.8231604 106.884735,39.7827148 106.675098,39.7827148 L105.649708,39.7827148 L105.649708,41.4951172 L106.675098,41.4951172 Z M117.165431,44.0004883 L117.165431,44.0449219 L116.215235,44.0449219 L115.227442,42.1376953 L114.280665,42.1376953 L114.280665,44.0449219 L113.395411,44.0449219 L113.395411,39.0683594 L115.159083,39.0683594 C115.733305,39.0683594 116.177066,39.1971016 116.490382,39.4545898 C116.803697,39.7120781 116.960352,40.0834937 116.960352,40.5688477 C116.960352,40.8969743 116.88174,41.1749663 116.724513,41.402832 C116.567285,41.6306978 116.34398,41.8061517 116.054591,41.9291992 L117.165431,44.0004883 Z M114.280665,41.4267578 L115.162501,41.4267578 C115.458726,41.4267578 115.68488,41.3527026 115.840968,41.2045898 C115.997056,41.0564771 116.075099,40.8593762 116.075099,40.6132812 C116.075099,40.3512357 115.999904,40.1472989 115.849513,40.0014648 C115.699121,39.8556308 115.46898,39.7827148 115.159083,39.7827148 L114.280665,39.7827148 L114.280665,41.4267578 Z M125.919435,41.6831055 C125.919435,42.1798527 125.833417,42.6110822 125.661378,42.9768066 C125.489339,43.3425311 125.247236,43.6233714 124.93506,43.8193359 C124.622884,44.0153005 124.261722,44.1132812 123.851563,44.1132812 C123.445962,44.1132812 123.08594,44.0153005 122.771485,43.8193359 C122.457031,43.6233714 122.212079,43.3419615 122.036622,42.9750977 C121.861165,42.6082338 121.773438,42.1775741 121.773438,41.6831055 L121.773438,41.4335938 C121.773438,40.9391251 121.860596,40.5084654 122.034913,40.1416016 C122.20923,39.7747377 122.453043,39.4927581 122.766358,39.2956543 C123.079674,39.0985504 123.439127,39 123.844728,39 C124.254886,39 124.616617,39.0979808 124.929933,39.2939453 C125.243248,39.4899098 125.486491,39.7713198 125.659669,40.1381836 C125.832847,40.5050474 125.919435,40.9368465 125.919435,41.4335938 L125.919435,41.6831055 Z M125.030763,41.4267578 C125.030763,40.8776014 124.927655,40.4577651 124.721437,40.1672363 C124.515218,39.8767075 124.222985,39.7314453 123.844728,39.7314453 C123.600911,39.7314453 123.390139,39.7963861 123.212403,39.9262695 C123.034668,40.056153 122.89852,40.248127 122.803956,40.5021973 C122.709392,40.7562675 122.66211,41.0644513 122.66211,41.4267578 L122.66211,41.6831055 C122.66211,42.045412 122.709961,42.3541654 122.805665,42.609375 C122.901369,42.8645846 123.038656,43.0576979 123.21753,43.1887207 C123.396405,43.3197435 123.607747,43.3852539 123.851563,43.3852539 C124.229821,43.3852539 124.520915,43.239422 124.724854,42.9477539 C124.928794,42.6560858 125.030763,42.2345405 125.030763,41.6831055 L125.030763,41.4267578 Z M134.813575,39.0683594 L133.029396,44.0449219 L132.164649,44.0449219 L130.387306,39.0683594 L131.358009,39.0683594 L132.595314,42.940918 L133.839454,39.0683594 L134.813575,39.0683594 Z M139.568556,44.0449219 L139.568556,39.0683594 L140.450392,39.0683594 L140.450392,44.0449219 L139.568556,44.0449219 Z M147.126271,39.0683594 C147.56833,39.0683594 147.959114,39.1663402 148.298634,39.3623047 C148.638154,39.5582692 148.901905,39.8351219 149.089894,40.1928711 C149.277883,40.5506203 149.371876,40.9653297 149.371876,41.4370117 L149.371876,41.6796875 C149.371876,42.1536482 149.277883,42.5689273 149.089894,42.9255371 C148.901905,43.282147 148.635875,43.5578604 148.291798,43.7526855 C147.947721,43.9475107 147.547823,44.0449219 147.092091,44.0449219 L145.649708,44.0449219 L145.649708,39.0683594 L147.126271,39.0683594 Z M148.483204,41.4301758 C148.483204,40.89697 148.366995,40.4890965 148.134572,40.206543 C147.902149,39.9239895 147.566052,39.7827148 147.126271,39.7827148 L146.534962,39.7827148 L146.534962,43.3339844 L147.092091,43.3339844 C147.547823,43.3339844 147.893604,43.1898615 148.129445,42.9016113 C148.365286,42.6133612 148.483204,42.2060573 148.483204,41.6796875 L148.483204,41.4301758 Z M157.633693,43.3339844 L157.633693,44.0449219 L154.369533,44.0449219 L154.369533,39.0683594 L157.613185,39.0683594 L157.613185,39.7827148 L155.254786,39.7827148 L155.254786,41.1328125 L157.288478,41.1328125 L157.288478,41.8300781 L155.254786,41.8300781 L155.254786,43.3339844 L157.633693,43.3339844 Z M166.24756,44.0004883 L166.24756,44.0449219 L165.297365,44.0449219 L164.309572,42.1376953 L163.362794,42.1376953 L163.362794,44.0449219 L162.47754,44.0449219 L162.47754,39.0683594 L164.241212,39.0683594 C164.815434,39.0683594 165.259196,39.1971016 165.572511,39.4545898 C165.885827,39.7120781 166.042482,40.0834937 166.042482,40.5688477 C166.042482,40.8969743 165.963869,41.1749663 165.806642,41.402832 C165.649415,41.6306978 165.42611,41.8061517 165.13672,41.9291992 L166.24756,44.0004883 Z M163.362794,41.4267578 L164.24463,41.4267578 C164.540856,41.4267578 164.767009,41.3527026 164.923097,41.2045898 C165.079185,41.0564771 165.157228,40.8593762 165.157228,40.6132812 C165.157228,40.3512357 165.082033,40.1472989 164.931642,40.0014648 C164.781251,39.8556308 164.55111,39.7827148 164.241212,39.7827148 L163.362794,39.7827148 L163.362794,41.4267578 Z" id="CONTENTPROVIDER" fill="#777777" fill-rule="nonzero"></path>
                <g id="logo" transform="translate(0.000000, -0.000000)">
                    <g id="MINIFLIX" transform="translate(37.942857, 0.948571)">
                        <g>
                            <use fill="#000000" xlink:href="#path-1"></use>
                            <use fill="#FFFFFF" xlink:href="#path-1"></use>
                        </g>
                    </g>
                    <g id="Group" fill-rule="nonzero">
                        <path d="M8.7421138,6.54580159 L8.7421138,7.79599823 L7.66491355,7.79599823 L7.66491355,6.54580159 L3.35611253,6.54580159 L3.35611253,7.79599823 L2.27891227,7.79599823 L2.27891227,6.54580159 L1.20171202,6.54580159 L1.20171202,28.4571429 L2.27891227,28.4571429 L2.27891227,27.2069462 L3.35611253,27.2069462 L3.35611253,28.4571429 L7.66491355,28.4571429 L7.66491355,27.2069462 L8.7421138,27.2069462 L8.7421138,28.4571429 L9.81931406,28.4571429 L9.81931406,6.54580159 L8.7421138,6.54580159 Z M3.35611253,26.154149 L2.27891227,26.154149 L2.27891227,24.9039524 L3.35611253,24.9039524 L3.35611253,26.154149 Z M3.35611253,23.7853554 L2.27891227,23.7853554 L2.27891227,22.5351587 L3.35611253,22.5351587 L3.35611253,23.7853554 Z M3.35611253,21.4165617 L2.27891227,21.4165617 L2.27891227,20.1663651 L3.35611253,20.1663651 L3.35611253,21.4165617 Z M3.35611253,19.0477681 L2.27891227,19.0477681 L2.27891227,17.7975714 L3.35611253,17.7975714 L3.35611253,19.0477681 Z M3.35611253,16.6789744 L2.27891227,16.6789744 L2.27891227,15.4287778 L3.35611253,15.4287778 L3.35611253,16.6789744 Z M3.35611253,14.3101808 L2.27891227,14.3101808 L2.27891227,13.0599841 L3.35611253,13.0599841 L3.35611253,14.3101808 Z M3.35611253,11.9413871 L2.27891227,11.9413871 L2.27891227,10.6911905 L3.35611253,10.6911905 L3.35611253,11.9413871 Z M3.35611253,9.86869267 L2.27891227,9.86869267 L2.27891227,8.61849603 L3.35611253,8.61849603 L3.35611253,9.86869267 Z M8.7421138,26.154149 L7.66491355,26.154149 L7.66491355,24.9039524 L8.7421138,24.9039524 L8.7421138,26.154149 Z M8.7421138,23.7853554 L7.66491355,23.7853554 L7.66491355,22.5351587 L8.7421138,22.5351587 L8.7421138,23.7853554 Z M8.7421138,21.4165617 L7.66491355,21.4165617 L7.66491355,20.1663651 L8.7421138,20.1663651 L8.7421138,21.4165617 Z M8.7421138,19.0477681 L7.66491355,19.0477681 L7.66491355,17.7975714 L8.7421138,17.7975714 L8.7421138,19.0477681 Z M8.7421138,16.6789744 L7.66491355,16.6789744 L7.66491355,15.4287778 L8.7421138,15.4287778 L8.7421138,16.6789744 Z M8.7421138,14.3101808 L7.66491355,14.3101808 L7.66491355,13.0599841 L8.7421138,13.0599841 L8.7421138,14.3101808 Z M8.7421138,11.9413871 L7.66491355,11.9413871 L7.66491355,10.6911905 L8.7421138,10.6911905 L8.7421138,11.9413871 Z M8.7421138,9.86869267 L7.66491355,9.86869267 L7.66491355,8.61849603 L8.7421138,8.61849603 L8.7421138,9.86869267 Z" id="Shape" fill="#FBF002"></path>
                        <g id="Shape" transform="translate(12.279407, 12.103819) rotate(-45.000000) translate(-12.279407, -12.103819) translate(7.062264, 0.246676)">
                            <g id="path-1-link" transform="translate(0.036497, 0.021347)" fill="#000000">
                                <path d="M8.04871179,0.523963127 L8.04871179,1.77415977 L6.97151153,1.77415977 L6.97151153,0.523963127 L2.66271051,0.523963127 L2.66271051,1.77415977 L1.58551026,1.77415977 L1.58551026,0.523963127 L0.508310003,0.523963127 L0.508310003,22.4353044 L1.58551026,22.4353044 L1.58551026,21.1851077 L2.66271051,21.1851077 L2.66271051,22.4353044 L6.97151153,22.4353044 L6.97151153,21.1851077 L8.04871179,21.1851077 L8.04871179,22.4353044 L9.12591204,22.4353044 L9.12591204,0.523963127 L8.04871179,0.523963127 Z M2.66271051,20.1323106 L1.58551026,20.1323106 L1.58551026,18.8821139 L2.66271051,18.8821139 L2.66271051,20.1323106 Z M2.66271051,17.7635169 L1.58551026,17.7635169 L1.58551026,16.5133203 L2.66271051,16.5133203 L2.66271051,17.7635169 Z M2.66271051,15.3947233 L1.58551026,15.3947233 L1.58551026,14.1445266 L2.66271051,14.1445266 L2.66271051,15.3947233 Z M2.66271051,13.0259296 L1.58551026,13.0259296 L1.58551026,11.775733 L2.66271051,11.775733 L2.66271051,13.0259296 Z M2.66271051,10.657136 L1.58551026,10.657136 L1.58551026,9.40693931 L2.66271051,9.40693931 L2.66271051,10.657136 Z M2.66271051,8.2883423 L1.58551026,8.2883423 L1.58551026,7.03814566 L2.66271051,7.03814566 L2.66271051,8.2883423 Z M2.66271051,5.91954866 L1.58551026,5.91954866 L1.58551026,4.66935202 L2.66271051,4.66935202 L2.66271051,5.91954866 Z M2.66271051,3.84685422 L1.58551026,3.84685422 L1.58551026,2.59665757 L2.66271051,2.59665757 L2.66271051,3.84685422 Z M8.04871179,20.1323106 L6.97151153,20.1323106 L6.97151153,18.8821139 L8.04871179,18.8821139 L8.04871179,20.1323106 Z M8.04871179,17.7635169 L6.97151153,17.7635169 L6.97151153,16.5133203 L8.04871179,16.5133203 L8.04871179,17.7635169 Z M8.04871179,15.3947233 L6.97151153,15.3947233 L6.97151153,14.1445266 L8.04871179,14.1445266 L8.04871179,15.3947233 Z M8.04871179,13.0259296 L6.97151153,13.0259296 L6.97151153,11.775733 L8.04871179,11.775733 L8.04871179,13.0259296 Z M8.04871179,10.657136 L6.97151153,10.657136 L6.97151153,9.40693931 L8.04871179,9.40693931 L8.04871179,10.657136 Z M8.04871179,8.2883423 L6.97151153,8.2883423 L6.97151153,7.03814566 L8.04871179,7.03814566 L8.04871179,8.2883423 Z M8.04871179,5.91954866 L6.97151153,5.91954866 L6.97151153,4.66935202 L8.04871179,4.66935202 L8.04871179,5.91954866 Z M8.04871179,3.84685422 L6.97151153,3.84685422 L6.97151153,2.59665757 L8.04871179,2.59665757 L8.04871179,3.84685422 Z" id="path-1"></path>
                            </g>
                            <g id="path-1-link" transform="translate(0.036497, 0.021347)" fill="#009FE2">
                                <path d="M8.04871179,0.523963127 L8.04871179,1.77415977 L6.97151153,1.77415977 L6.97151153,0.523963127 L2.66271051,0.523963127 L2.66271051,1.77415977 L1.58551026,1.77415977 L1.58551026,0.523963127 L0.508310003,0.523963127 L0.508310003,22.4353044 L1.58551026,22.4353044 L1.58551026,21.1851077 L2.66271051,21.1851077 L2.66271051,22.4353044 L6.97151153,22.4353044 L6.97151153,21.1851077 L8.04871179,21.1851077 L8.04871179,22.4353044 L9.12591204,22.4353044 L9.12591204,0.523963127 L8.04871179,0.523963127 Z M2.66271051,20.1323106 L1.58551026,20.1323106 L1.58551026,18.8821139 L2.66271051,18.8821139 L2.66271051,20.1323106 Z M2.66271051,17.7635169 L1.58551026,17.7635169 L1.58551026,16.5133203 L2.66271051,16.5133203 L2.66271051,17.7635169 Z M2.66271051,15.3947233 L1.58551026,15.3947233 L1.58551026,14.1445266 L2.66271051,14.1445266 L2.66271051,15.3947233 Z M2.66271051,13.0259296 L1.58551026,13.0259296 L1.58551026,11.775733 L2.66271051,11.775733 L2.66271051,13.0259296 Z M2.66271051,10.657136 L1.58551026,10.657136 L1.58551026,9.40693931 L2.66271051,9.40693931 L2.66271051,10.657136 Z M2.66271051,8.2883423 L1.58551026,8.2883423 L1.58551026,7.03814566 L2.66271051,7.03814566 L2.66271051,8.2883423 Z M2.66271051,5.91954866 L1.58551026,5.91954866 L1.58551026,4.66935202 L2.66271051,4.66935202 L2.66271051,5.91954866 Z M2.66271051,3.84685422 L1.58551026,3.84685422 L1.58551026,2.59665757 L2.66271051,2.59665757 L2.66271051,3.84685422 Z M8.04871179,20.1323106 L6.97151153,20.1323106 L6.97151153,18.8821139 L8.04871179,18.8821139 L8.04871179,20.1323106 Z M8.04871179,17.7635169 L6.97151153,17.7635169 L6.97151153,16.5133203 L8.04871179,16.5133203 L8.04871179,17.7635169 Z M8.04871179,15.3947233 L6.97151153,15.3947233 L6.97151153,14.1445266 L8.04871179,14.1445266 L8.04871179,15.3947233 Z M8.04871179,13.0259296 L6.97151153,13.0259296 L6.97151153,11.775733 L8.04871179,11.775733 L8.04871179,13.0259296 Z M8.04871179,10.657136 L6.97151153,10.657136 L6.97151153,9.40693931 L8.04871179,9.40693931 L8.04871179,10.657136 Z M8.04871179,8.2883423 L6.97151153,8.2883423 L6.97151153,7.03814566 L8.04871179,7.03814566 L8.04871179,8.2883423 Z M8.04871179,5.91954866 L6.97151153,5.91954866 L6.97151153,4.66935202 L8.04871179,4.66935202 L8.04871179,5.91954866 Z M8.04871179,3.84685422 L6.97151153,3.84685422 L6.97151153,2.59665757 L8.04871179,2.59665757 L8.04871179,3.84685422 Z" id="path-1"></path>
                            </g>
                        </g>
                        <path d="M29.4243587,6.54580159 L29.4243587,7.79599823 L28.3471584,7.79599823 L28.3471584,6.54580159 L24.0383574,6.54580159 L24.0383574,7.79599823 L22.9611572,7.79599823 L22.9611572,6.54580159 L21.8839569,6.54580159 L21.8839569,28.4571429 L22.9611572,28.4571429 L22.9611572,27.2069462 L24.0383574,27.2069462 L24.0383574,28.4571429 L28.3471584,28.4571429 L28.3471584,27.2069462 L29.4243587,27.2069462 L29.4243587,28.4571429 L30.501559,28.4571429 L30.501559,6.54580159 L29.4243587,6.54580159 Z M24.0383574,26.154149 L22.9611572,26.154149 L22.9611572,24.9039524 L24.0383574,24.9039524 L24.0383574,26.154149 Z M24.0383574,23.7853554 L22.9611572,23.7853554 L22.9611572,22.5351587 L24.0383574,22.5351587 L24.0383574,23.7853554 Z M24.0383574,21.4165617 L22.9611572,21.4165617 L22.9611572,20.1663651 L24.0383574,20.1663651 L24.0383574,21.4165617 Z M24.0383574,19.0477681 L22.9611572,19.0477681 L22.9611572,17.7975714 L24.0383574,17.7975714 L24.0383574,19.0477681 Z M24.0383574,16.6789744 L22.9611572,16.6789744 L22.9611572,15.4287778 L24.0383574,15.4287778 L24.0383574,16.6789744 Z M24.0383574,14.3101808 L22.9611572,14.3101808 L22.9611572,13.0599841 L24.0383574,13.0599841 L24.0383574,14.3101808 Z M24.0383574,11.9413871 L22.9611572,11.9413871 L22.9611572,10.6911905 L24.0383574,10.6911905 L24.0383574,11.9413871 Z M24.0383574,9.86869267 L22.9611572,9.86869267 L22.9611572,8.61849603 L24.0383574,8.61849603 L24.0383574,9.86869267 Z M29.4243587,26.154149 L28.3471584,26.154149 L28.3471584,24.9039524 L29.4243587,24.9039524 L29.4243587,26.154149 Z M29.4243587,23.7853554 L28.3471584,23.7853554 L28.3471584,22.5351587 L29.4243587,22.5351587 L29.4243587,23.7853554 Z M29.4243587,21.4165617 L28.3471584,21.4165617 L28.3471584,20.1663651 L29.4243587,20.1663651 L29.4243587,21.4165617 Z M29.4243587,19.0477681 L28.3471584,19.0477681 L28.3471584,17.7975714 L29.4243587,17.7975714 L29.4243587,19.0477681 Z M29.4243587,16.6789744 L28.3471584,16.6789744 L28.3471584,15.4287778 L29.4243587,15.4287778 L29.4243587,16.6789744 Z M29.4243587,14.3101808 L28.3471584,14.3101808 L28.3471584,13.0599841 L29.4243587,13.0599841 L29.4243587,14.3101808 Z M29.4243587,11.9413871 L28.3471584,11.9413871 L28.3471584,10.6911905 L29.4243587,10.6911905 L29.4243587,11.9413871 Z M29.4243587,9.86869267 L28.3471584,9.86869267 L28.3471584,8.61849603 L29.4243587,8.61849603 L29.4243587,9.86869267 Z" id="Shape-Copy" fill="#2EAC66"></path>
                        <g id="Shape-Copy-2" transform="translate(20.965199, 12.629028) rotate(45.000000) translate(-20.965199, -12.629028) translate(15.748056, 0.771885)">
                            <g id="path-3-link" transform="translate(0.015922, 0.010452)" fill="#000000">
                                <path d="M8.04871179,0.523963127 L8.04871179,1.77415977 L6.97151153,1.77415977 L6.97151153,0.523963127 L2.66271051,0.523963127 L2.66271051,1.77415977 L1.58551026,1.77415977 L1.58551026,0.523963127 L0.508310003,0.523963127 L0.508310003,22.4353044 L1.58551026,22.4353044 L1.58551026,21.1851077 L2.66271051,21.1851077 L2.66271051,22.4353044 L6.97151153,22.4353044 L6.97151153,21.1851077 L8.04871179,21.1851077 L8.04871179,22.4353044 L9.12591204,22.4353044 L9.12591204,0.523963127 L8.04871179,0.523963127 Z M2.66271051,20.1323106 L1.58551026,20.1323106 L1.58551026,18.8821139 L2.66271051,18.8821139 L2.66271051,20.1323106 Z M2.66271051,17.7635169 L1.58551026,17.7635169 L1.58551026,16.5133203 L2.66271051,16.5133203 L2.66271051,17.7635169 Z M2.66271051,15.3947233 L1.58551026,15.3947233 L1.58551026,14.1445266 L2.66271051,14.1445266 L2.66271051,15.3947233 Z M2.66271051,13.0259296 L1.58551026,13.0259296 L1.58551026,11.775733 L2.66271051,11.775733 L2.66271051,13.0259296 Z M2.66271051,10.657136 L1.58551026,10.657136 L1.58551026,9.40693931 L2.66271051,9.40693931 L2.66271051,10.657136 Z M2.66271051,8.2883423 L1.58551026,8.2883423 L1.58551026,7.03814566 L2.66271051,7.03814566 L2.66271051,8.2883423 Z M2.66271051,5.91954866 L1.58551026,5.91954866 L1.58551026,4.66935202 L2.66271051,4.66935202 L2.66271051,5.91954866 Z M2.66271051,3.84685422 L1.58551026,3.84685422 L1.58551026,2.59665757 L2.66271051,2.59665757 L2.66271051,3.84685422 Z M8.04871179,20.1323106 L6.97151153,20.1323106 L6.97151153,18.8821139 L8.04871179,18.8821139 L8.04871179,20.1323106 Z M8.04871179,17.7635169 L6.97151153,17.7635169 L6.97151153,16.5133203 L8.04871179,16.5133203 L8.04871179,17.7635169 Z M8.04871179,15.3947233 L6.97151153,15.3947233 L6.97151153,14.1445266 L8.04871179,14.1445266 L8.04871179,15.3947233 Z M8.04871179,13.0259296 L6.97151153,13.0259296 L6.97151153,11.775733 L8.04871179,11.775733 L8.04871179,13.0259296 Z M8.04871179,10.657136 L6.97151153,10.657136 L6.97151153,9.40693931 L8.04871179,9.40693931 L8.04871179,10.657136 Z M8.04871179,8.2883423 L6.97151153,8.2883423 L6.97151153,7.03814566 L8.04871179,7.03814566 L8.04871179,8.2883423 Z M8.04871179,5.91954866 L6.97151153,5.91954866 L6.97151153,4.66935202 L8.04871179,4.66935202 L8.04871179,5.91954866 Z M8.04871179,3.84685422 L6.97151153,3.84685422 L6.97151153,2.59665757 L8.04871179,2.59665757 L8.04871179,3.84685422 Z" id="path-3"></path>
                            </g>
                            <g id="path-3-link" transform="translate(0.015922, 0.010452)" fill="#E6007D">
                                <path d="M8.04871179,0.523963127 L8.04871179,1.77415977 L6.97151153,1.77415977 L6.97151153,0.523963127 L2.66271051,0.523963127 L2.66271051,1.77415977 L1.58551026,1.77415977 L1.58551026,0.523963127 L0.508310003,0.523963127 L0.508310003,22.4353044 L1.58551026,22.4353044 L1.58551026,21.1851077 L2.66271051,21.1851077 L2.66271051,22.4353044 L6.97151153,22.4353044 L6.97151153,21.1851077 L8.04871179,21.1851077 L8.04871179,22.4353044 L9.12591204,22.4353044 L9.12591204,0.523963127 L8.04871179,0.523963127 Z M2.66271051,20.1323106 L1.58551026,20.1323106 L1.58551026,18.8821139 L2.66271051,18.8821139 L2.66271051,20.1323106 Z M2.66271051,17.7635169 L1.58551026,17.7635169 L1.58551026,16.5133203 L2.66271051,16.5133203 L2.66271051,17.7635169 Z M2.66271051,15.3947233 L1.58551026,15.3947233 L1.58551026,14.1445266 L2.66271051,14.1445266 L2.66271051,15.3947233 Z M2.66271051,13.0259296 L1.58551026,13.0259296 L1.58551026,11.775733 L2.66271051,11.775733 L2.66271051,13.0259296 Z M2.66271051,10.657136 L1.58551026,10.657136 L1.58551026,9.40693931 L2.66271051,9.40693931 L2.66271051,10.657136 Z M2.66271051,8.2883423 L1.58551026,8.2883423 L1.58551026,7.03814566 L2.66271051,7.03814566 L2.66271051,8.2883423 Z M2.66271051,5.91954866 L1.58551026,5.91954866 L1.58551026,4.66935202 L2.66271051,4.66935202 L2.66271051,5.91954866 Z M2.66271051,3.84685422 L1.58551026,3.84685422 L1.58551026,2.59665757 L2.66271051,2.59665757 L2.66271051,3.84685422 Z M8.04871179,20.1323106 L6.97151153,20.1323106 L6.97151153,18.8821139 L8.04871179,18.8821139 L8.04871179,20.1323106 Z M8.04871179,17.7635169 L6.97151153,17.7635169 L6.97151153,16.5133203 L8.04871179,16.5133203 L8.04871179,17.7635169 Z M8.04871179,15.3947233 L6.97151153,15.3947233 L6.97151153,14.1445266 L8.04871179,14.1445266 L8.04871179,15.3947233 Z M8.04871179,13.0259296 L6.97151153,13.0259296 L6.97151153,11.775733 L8.04871179,11.775733 L8.04871179,13.0259296 Z M8.04871179,10.657136 L6.97151153,10.657136 L6.97151153,9.40693931 L8.04871179,9.40693931 L8.04871179,10.657136 Z M8.04871179,8.2883423 L6.97151153,8.2883423 L6.97151153,7.03814566 L8.04871179,7.03814566 L8.04871179,8.2883423 Z M8.04871179,5.91954866 L6.97151153,5.91954866 L6.97151153,4.66935202 L8.04871179,4.66935202 L8.04871179,5.91954866 Z M8.04871179,3.84685422 L6.97151153,3.84685422 L6.97151153,2.59665757 L8.04871179,2.59665757 L8.04871179,3.84685422 Z" id="path-3"></path>
                            </g>
                        </g>
                    </g>
                </g>
            </g>
        </g>
    </g>
</svg>