<?xml version="1.0" encoding="UTF-8"?>
<svg width="277px" height="69px" viewBox="0 0 277 69" version="1.1" xmlns="http://www.w3.org/2000/svg" xmlns:xlink="http://www.w3.org/1999/xlink">
    <!-- Generator: Sketch 53 (72520) - https://sketchapp.com -->
    <title>Group 3</title>
    <desc>Created with Sketch.</desc>
    <defs>
        <path d="M63,45.7512066 L63,1 L70.310369,1 L79.0277547,32.6860521 L80.7712318,39.3102075 C81.1994564,37.661792 81.8519793,35.2706077 82.7288202,32.136583 L91.5379678,1 L98.0836538,1 L98.0836538,45.7512066 L93.4037942,45.7512066 L93.4037942,8.29572876 L82.6982328,45.7512066 L78.3242464,45.7512066 L67.6798597,7.65468147 L67.6798597,45.7512066 L63,45.7512066 Z M106.862214,45.7512066 L106.862214,1 L111.725598,1 L111.725598,45.7512066 L106.862214,45.7512066 Z M120.075936,45.7512066 L120.075936,1 L125.061668,1 L144.392853,36.1354971 L144.392853,1 L149.042126,1 L149.042126,45.7512066 L144.056393,45.7512066 L124.755795,10.5851834 L124.755795,45.7512066 L120.075936,45.7512066 Z M158.218321,45.7512066 L158.218321,1 L163.081705,1 L163.081705,45.7512066 L158.218321,45.7512066 Z M171.92144,45.7512066 L171.92144,1 L196.727755,1 L196.727755,6.28100869 L176.784823,6.28100869 L176.784823,20.1398407 L194.036071,20.1398407 L194.036071,25.4208494 L176.784823,25.4208494 L176.784823,45.7512066 L171.92144,45.7512066 Z M202.661694,45.7512066 L202.661694,1 L207.525078,1 L207.525078,40.4701979 L225.63277,40.4701979 L225.63277,45.7512066 L202.661694,45.7512066 Z M232.453742,45.7512066 L232.453742,1 L237.317126,1 L237.317126,45.7512066 L232.453742,45.7512066 Z M242.088747,45.7512066 L256.31185,22.4292954 L243.77105,1 L249.552053,1 L256.250676,12.4777992 C257.616916,14.8384931 258.5957,16.6700385 259.187058,17.9724903 C259.982332,16.3851272 260.950921,14.6858601 262.092853,12.874638 L269.525572,1 L274.78659,1 L261.878742,22.0935087 L275.795972,45.7512066 L269.800858,45.7512066 L260.5329,29.7860763 C260.023109,28.8906406 259.492934,27.8934659 258.94236,26.7945222 C258.106302,28.422587 257.514953,29.5418647 257.168295,30.152389 L247.930925,45.7512066 L242.088747,45.7512066 Z" id="path-1"></path>
    </defs>
    <g id="Authentification" stroke="none" stroke-width="1" fill="none" fill-rule="evenodd">
        <g id="Sign-In" transform="translate(-545.000000, -137.000000)">
            <g id="Group-2" transform="translate(436.000000, 85.000000)">
                <g id="logo" transform="translate(108.000000, 50.000000)">
                    <g id="MINIFLIX" transform="translate(1.000000, 1.000000)">
                        <g id="Group-3" transform="translate(0.531107, 0.715975)">
                            <g id="MINIFLIX" fill="#000000">
                                <use xlink:href="#path-1"></use>
                                <use xlink:href="#path-1"></use>
                            </g>
                            <path d="M13.2146271,9.32513621 L13.2146271,11.4339016 L11.3976628,11.4339016 L11.3976628,9.32513621 L4.12980563,9.32513621 L4.12980563,11.4339016 L2.31284134,11.4339016 L2.31284134,9.32513621 L0.495877058,9.32513621 L0.495877058,46.2840251 L2.31284134,46.2840251 L2.31284134,44.1752597 L4.12980563,44.1752597 L4.12980563,46.2840251 L11.3976628,46.2840251 L11.3976628,44.1752597 L13.2146271,44.1752597 L13.2146271,46.2840251 L15.0315913,46.2840251 L15.0315913,9.32513621 L13.2146271,9.32513621 Z M4.12980563,42.3994572 L2.31284134,42.3994572 L2.31284134,40.2906918 L4.12980563,40.2906918 L4.12980563,42.3994572 Z M4.12980563,38.4039016 L2.31284134,38.4039016 L2.31284134,36.2951362 L4.12980563,36.2951362 L4.12980563,38.4039016 Z M4.12980563,34.4083461 L2.31284134,34.4083461 L2.31284134,32.2995807 L4.12980563,32.2995807 L4.12980563,34.4083461 Z M4.12980563,30.4127905 L2.31284134,30.4127905 L2.31284134,28.3040251 L4.12980563,28.3040251 L4.12980563,30.4127905 Z M4.12980563,26.417235 L2.31284134,26.417235 L2.31284134,24.3084695 L4.12980563,24.3084695 L4.12980563,26.417235 Z M4.12980563,22.4216794 L2.31284134,22.4216794 L2.31284134,20.312914 L4.12980563,20.312914 L4.12980563,22.4216794 Z M4.12980563,18.4261239 L2.31284134,18.4261239 L2.31284134,16.3173584 L4.12980563,16.3173584 L4.12980563,18.4261239 Z M4.12980563,14.9300127 L2.31284134,14.9300127 L2.31284134,12.8212473 L4.12980563,12.8212473 L4.12980563,14.9300127 Z M13.2146271,42.3994572 L11.3976628,42.3994572 L11.3976628,40.2906918 L13.2146271,40.2906918 L13.2146271,42.3994572 Z M13.2146271,38.4039016 L11.3976628,38.4039016 L11.3976628,36.2951362 L13.2146271,36.2951362 L13.2146271,38.4039016 Z M13.2146271,34.4083461 L11.3976628,34.4083461 L11.3976628,32.2995807 L13.2146271,32.2995807 L13.2146271,34.4083461 Z M13.2146271,30.4127905 L11.3976628,30.4127905 L11.3976628,28.3040251 L13.2146271,28.3040251 L13.2146271,30.4127905 Z M13.2146271,26.417235 L11.3976628,26.417235 L11.3976628,24.3084695 L13.2146271,24.3084695 L13.2146271,26.417235 Z M13.2146271,22.4216794 L11.3976628,22.4216794 L11.3976628,20.312914 L13.2146271,20.312914 L13.2146271,22.4216794 Z M13.2146271,18.4261239 L11.3976628,18.4261239 L11.3976628,16.3173584 L13.2146271,16.3173584 L13.2146271,18.4261239 Z M13.2146271,14.9300127 L11.3976628,14.9300127 L11.3976628,12.8212473 L13.2146271,12.8212473 L13.2146271,14.9300127 Z" id="Shape" fill="#FBF002" fill-rule="nonzero"></path>
                            <path d="M23.7736477,0.229453497 L23.7736477,2.33821893 L21.9566834,2.33821893 L21.9566834,0.229453497 L14.6888263,0.229453497 L14.6888263,2.33821893 L12.871862,2.33821893 L12.871862,0.229453497 L11.0548977,0.229453497 L11.0548977,37.1883424 L12.871862,37.1883424 L12.871862,35.079577 L14.6888263,35.079577 L14.6888263,37.1883424 L21.9566834,37.1883424 L21.9566834,35.079577 L23.7736477,35.079577 L23.7736477,37.1883424 L25.590612,37.1883424 L25.590612,0.229453497 L23.7736477,0.229453497 Z M14.6888263,33.3037745 L12.871862,33.3037745 L12.871862,31.195009 L14.6888263,31.195009 L14.6888263,33.3037745 Z M14.6888263,29.3082189 L12.871862,29.3082189 L12.871862,27.1994535 L14.6888263,27.1994535 L14.6888263,29.3082189 Z M14.6888263,25.3126634 L12.871862,25.3126634 L12.871862,23.2038979 L14.6888263,23.2038979 L14.6888263,25.3126634 Z M14.6888263,21.3171078 L12.871862,21.3171078 L12.871862,19.2083424 L14.6888263,19.2083424 L14.6888263,21.3171078 Z M14.6888263,17.3215522 L12.871862,17.3215522 L12.871862,15.2127868 L14.6888263,15.2127868 L14.6888263,17.3215522 Z M14.6888263,13.3259967 L12.871862,13.3259967 L12.871862,11.2172313 L14.6888263,11.2172313 L14.6888263,13.3259967 Z M14.6888263,9.33044115 L12.871862,9.33044115 L12.871862,7.22167572 L14.6888263,7.22167572 L14.6888263,9.33044115 Z M14.6888263,5.83433004 L12.871862,5.83433004 L12.871862,3.72556461 L14.6888263,3.72556461 L14.6888263,5.83433004 Z M23.7736477,33.3037745 L21.9566834,33.3037745 L21.9566834,31.195009 L23.7736477,31.195009 L23.7736477,33.3037745 Z M23.7736477,29.3082189 L21.9566834,29.3082189 L21.9566834,27.1994535 L23.7736477,27.1994535 L23.7736477,29.3082189 Z M23.7736477,25.3126634 L21.9566834,25.3126634 L21.9566834,23.2038979 L23.7736477,23.2038979 L23.7736477,25.3126634 Z M23.7736477,21.3171078 L21.9566834,21.3171078 L21.9566834,19.2083424 L23.7736477,19.2083424 L23.7736477,21.3171078 Z M23.7736477,17.3215522 L21.9566834,17.3215522 L21.9566834,15.2127868 L23.7736477,15.2127868 L23.7736477,17.3215522 Z M23.7736477,13.3259967 L21.9566834,13.3259967 L21.9566834,11.2172313 L23.7736477,11.2172313 L23.7736477,13.3259967 Z M23.7736477,9.33044115 L21.9566834,9.33044115 L21.9566834,7.22167572 L23.7736477,7.22167572 L23.7736477,9.33044115 Z M23.7736477,5.83433004 L21.9566834,5.83433004 L21.9566834,3.72556461 L23.7736477,3.72556461 L23.7736477,5.83433004 Z" id="path-1" fill="#000000" fill-rule="nonzero" transform="translate(18.322755, 18.708898) rotate(-45.000000) translate(-18.322755, -18.708898) "></path>
                            <path d="M23.7736477,0.229453497 L23.7736477,2.33821893 L21.9566834,2.33821893 L21.9566834,0.229453497 L14.6888263,0.229453497 L14.6888263,2.33821893 L12.871862,2.33821893 L12.871862,0.229453497 L11.0548977,0.229453497 L11.0548977,37.1883424 L12.871862,37.1883424 L12.871862,35.079577 L14.6888263,35.079577 L14.6888263,37.1883424 L21.9566834,37.1883424 L21.9566834,35.079577 L23.7736477,35.079577 L23.7736477,37.1883424 L25.590612,37.1883424 L25.590612,0.229453497 L23.7736477,0.229453497 Z M14.6888263,33.3037745 L12.871862,33.3037745 L12.871862,31.195009 L14.6888263,31.195009 L14.6888263,33.3037745 Z M14.6888263,29.3082189 L12.871862,29.3082189 L12.871862,27.1994535 L14.6888263,27.1994535 L14.6888263,29.3082189 Z M14.6888263,25.3126634 L12.871862,25.3126634 L12.871862,23.2038979 L14.6888263,23.2038979 L14.6888263,25.3126634 Z M14.6888263,21.3171078 L12.871862,21.3171078 L12.871862,19.2083424 L14.6888263,19.2083424 L14.6888263,21.3171078 Z M14.6888263,17.3215522 L12.871862,17.3215522 L12.871862,15.2127868 L14.6888263,15.2127868 L14.6888263,17.3215522 Z M14.6888263,13.3259967 L12.871862,13.3259967 L12.871862,11.2172313 L14.6888263,11.2172313 L14.6888263,13.3259967 Z M14.6888263,9.33044115 L12.871862,9.33044115 L12.871862,7.22167572 L14.6888263,7.22167572 L14.6888263,9.33044115 Z M14.6888263,5.83433004 L12.871862,5.83433004 L12.871862,3.72556461 L14.6888263,3.72556461 L14.6888263,5.83433004 Z M23.7736477,33.3037745 L21.9566834,33.3037745 L21.9566834,31.195009 L23.7736477,31.195009 L23.7736477,33.3037745 Z M23.7736477,29.3082189 L21.9566834,29.3082189 L21.9566834,27.1994535 L23.7736477,27.1994535 L23.7736477,29.3082189 Z M23.7736477,25.3126634 L21.9566834,25.3126634 L21.9566834,23.2038979 L23.7736477,23.2038979 L23.7736477,25.3126634 Z M23.7736477,21.3171078 L21.9566834,21.3171078 L21.9566834,19.2083424 L23.7736477,19.2083424 L23.7736477,21.3171078 Z M23.7736477,17.3215522 L21.9566834,17.3215522 L21.9566834,15.2127868 L23.7736477,15.2127868 L23.7736477,17.3215522 Z M23.7736477,13.3259967 L21.9566834,13.3259967 L21.9566834,11.2172313 L23.7736477,11.2172313 L23.7736477,13.3259967 Z M23.7736477,9.33044115 L21.9566834,9.33044115 L21.9566834,7.22167572 L23.7736477,7.22167572 L23.7736477,9.33044115 Z M23.7736477,5.83433004 L21.9566834,5.83433004 L21.9566834,3.72556461 L23.7736477,3.72556461 L23.7736477,5.83433004 Z" id="path-1" fill="#009FE2" fill-rule="nonzero" transform="translate(18.322755, 18.708898) rotate(-45.000000) translate(-18.322755, -18.708898) "></path>
                            <path d="M48.1003413,9.32513621 L48.1003413,11.4339016 L46.2833771,11.4339016 L46.2833771,9.32513621 L39.0155199,9.32513621 L39.0155199,11.4339016 L37.1985556,11.4339016 L37.1985556,9.32513621 L35.3815913,9.32513621 L35.3815913,46.2840251 L37.1985556,46.2840251 L37.1985556,44.1752597 L39.0155199,44.1752597 L39.0155199,46.2840251 L46.2833771,46.2840251 L46.2833771,44.1752597 L48.1003413,44.1752597 L48.1003413,46.2840251 L49.9173056,46.2840251 L49.9173056,9.32513621 L48.1003413,9.32513621 Z M39.0155199,42.3994572 L37.1985556,42.3994572 L37.1985556,40.2906918 L39.0155199,40.2906918 L39.0155199,42.3994572 Z M39.0155199,38.4039016 L37.1985556,38.4039016 L37.1985556,36.2951362 L39.0155199,36.2951362 L39.0155199,38.4039016 Z M39.0155199,34.4083461 L37.1985556,34.4083461 L37.1985556,32.2995807 L39.0155199,32.2995807 L39.0155199,34.4083461 Z M39.0155199,30.4127905 L37.1985556,30.4127905 L37.1985556,28.3040251 L39.0155199,28.3040251 L39.0155199,30.4127905 Z M39.0155199,26.417235 L37.1985556,26.417235 L37.1985556,24.3084695 L39.0155199,24.3084695 L39.0155199,26.417235 Z M39.0155199,22.4216794 L37.1985556,22.4216794 L37.1985556,20.312914 L39.0155199,20.312914 L39.0155199,22.4216794 Z M39.0155199,18.4261239 L37.1985556,18.4261239 L37.1985556,16.3173584 L39.0155199,16.3173584 L39.0155199,18.4261239 Z M39.0155199,14.9300127 L37.1985556,14.9300127 L37.1985556,12.8212473 L39.0155199,12.8212473 L39.0155199,14.9300127 Z M48.1003413,42.3994572 L46.2833771,42.3994572 L46.2833771,40.2906918 L48.1003413,40.2906918 L48.1003413,42.3994572 Z M48.1003413,38.4039016 L46.2833771,38.4039016 L46.2833771,36.2951362 L48.1003413,36.2951362 L48.1003413,38.4039016 Z M48.1003413,34.4083461 L46.2833771,34.4083461 L46.2833771,32.2995807 L48.1003413,32.2995807 L48.1003413,34.4083461 Z M48.1003413,30.4127905 L46.2833771,30.4127905 L46.2833771,28.3040251 L48.1003413,28.3040251 L48.1003413,30.4127905 Z M48.1003413,26.417235 L46.2833771,26.417235 L46.2833771,24.3084695 L48.1003413,24.3084695 L48.1003413,26.417235 Z M48.1003413,22.4216794 L46.2833771,22.4216794 L46.2833771,20.312914 L48.1003413,20.312914 L48.1003413,22.4216794 Z M48.1003413,18.4261239 L46.2833771,18.4261239 L46.2833771,16.3173584 L48.1003413,16.3173584 L48.1003413,18.4261239 Z M48.1003413,14.9300127 L46.2833771,14.9300127 L46.2833771,12.8212473 L48.1003413,12.8212473 L48.1003413,14.9300127 Z" id="Shape-Copy" fill="#2EAC66" fill-rule="nonzero"></path>
                            <path d="M39.2624327,0.210631985 L39.2624327,2.31939741 L37.4454684,2.31939741 L37.4454684,0.210631985 L30.1776113,0.210631985 L30.1776113,2.31939741 L28.360647,2.31939741 L28.360647,0.210631985 L26.5436827,0.210631985 L26.5436827,37.1695209 L28.360647,37.1695209 L28.360647,35.0607554 L30.1776113,35.0607554 L30.1776113,37.1695209 L37.4454684,37.1695209 L37.4454684,35.0607554 L39.2624327,35.0607554 L39.2624327,37.1695209 L41.079397,37.1695209 L41.079397,0.210631985 L39.2624327,0.210631985 Z M30.1776113,33.284953 L28.360647,33.284953 L28.360647,31.1761875 L30.1776113,31.1761875 L30.1776113,33.284953 Z M30.1776113,29.2893974 L28.360647,29.2893974 L28.360647,27.180632 L30.1776113,27.180632 L30.1776113,29.2893974 Z M30.1776113,25.2938418 L28.360647,25.2938418 L28.360647,23.1850764 L30.1776113,23.1850764 L30.1776113,25.2938418 Z M30.1776113,21.2982863 L28.360647,21.2982863 L28.360647,19.1895209 L30.1776113,19.1895209 L30.1776113,21.2982863 Z M30.1776113,17.3027307 L28.360647,17.3027307 L28.360647,15.1939653 L30.1776113,15.1939653 L30.1776113,17.3027307 Z M30.1776113,13.3071752 L28.360647,13.3071752 L28.360647,11.1984098 L30.1776113,11.1984098 L30.1776113,13.3071752 Z M30.1776113,9.31161964 L28.360647,9.31161964 L28.360647,7.20285421 L30.1776113,7.20285421 L30.1776113,9.31161964 Z M30.1776113,5.81550853 L28.360647,5.81550853 L28.360647,3.70674309 L30.1776113,3.70674309 L30.1776113,5.81550853 Z M39.2624327,33.284953 L37.4454684,33.284953 L37.4454684,31.1761875 L39.2624327,31.1761875 L39.2624327,33.284953 Z M39.2624327,29.2893974 L37.4454684,29.2893974 L37.4454684,27.180632 L39.2624327,27.180632 L39.2624327,29.2893974 Z M39.2624327,25.2938418 L37.4454684,25.2938418 L37.4454684,23.1850764 L39.2624327,23.1850764 L39.2624327,25.2938418 Z M39.2624327,21.2982863 L37.4454684,21.2982863 L37.4454684,19.1895209 L39.2624327,19.1895209 L39.2624327,21.2982863 Z M39.2624327,17.3027307 L37.4454684,17.3027307 L37.4454684,15.1939653 L39.2624327,15.1939653 L39.2624327,17.3027307 Z M39.2624327,13.3071752 L37.4454684,13.3071752 L37.4454684,11.1984098 L39.2624327,11.1984098 L39.2624327,13.3071752 Z M39.2624327,9.31161964 L37.4454684,9.31161964 L37.4454684,7.20285421 L39.2624327,7.20285421 L39.2624327,9.31161964 Z M39.2624327,5.81550853 L37.4454684,5.81550853 L37.4454684,3.70674309 L39.2624327,3.70674309 L39.2624327,5.81550853 Z" id="path-3" fill="#000000" fill-rule="nonzero" transform="translate(33.811540, 18.690076) rotate(45.000000) translate(-33.811540, -18.690076) "></path>
                            <path d="M39.2624327,0.210631985 L39.2624327,2.31939741 L37.4454684,2.31939741 L37.4454684,0.210631985 L30.1776113,0.210631985 L30.1776113,2.31939741 L28.360647,2.31939741 L28.360647,0.210631985 L26.5436827,0.210631985 L26.5436827,37.1695209 L28.360647,37.1695209 L28.360647,35.0607554 L30.1776113,35.0607554 L30.1776113,37.1695209 L37.4454684,37.1695209 L37.4454684,35.0607554 L39.2624327,35.0607554 L39.2624327,37.1695209 L41.079397,37.1695209 L41.079397,0.210631985 L39.2624327,0.210631985 Z M30.1776113,33.284953 L28.360647,33.284953 L28.360647,31.1761875 L30.1776113,31.1761875 L30.1776113,33.284953 Z M30.1776113,29.2893974 L28.360647,29.2893974 L28.360647,27.180632 L30.1776113,27.180632 L30.1776113,29.2893974 Z M30.1776113,25.2938418 L28.360647,25.2938418 L28.360647,23.1850764 L30.1776113,23.1850764 L30.1776113,25.2938418 Z M30.1776113,21.2982863 L28.360647,21.2982863 L28.360647,19.1895209 L30.1776113,19.1895209 L30.1776113,21.2982863 Z M30.1776113,17.3027307 L28.360647,17.3027307 L28.360647,15.1939653 L30.1776113,15.1939653 L30.1776113,17.3027307 Z M30.1776113,13.3071752 L28.360647,13.3071752 L28.360647,11.1984098 L30.1776113,11.1984098 L30.1776113,13.3071752 Z M30.1776113,9.31161964 L28.360647,9.31161964 L28.360647,7.20285421 L30.1776113,7.20285421 L30.1776113,9.31161964 Z M30.1776113,5.81550853 L28.360647,5.81550853 L28.360647,3.70674309 L30.1776113,3.70674309 L30.1776113,5.81550853 Z M39.2624327,33.284953 L37.4454684,33.284953 L37.4454684,31.1761875 L39.2624327,31.1761875 L39.2624327,33.284953 Z M39.2624327,29.2893974 L37.4454684,29.2893974 L37.4454684,27.180632 L39.2624327,27.180632 L39.2624327,29.2893974 Z M39.2624327,25.2938418 L37.4454684,25.2938418 L37.4454684,23.1850764 L39.2624327,23.1850764 L39.2624327,25.2938418 Z M39.2624327,21.2982863 L37.4454684,21.2982863 L37.4454684,19.1895209 L39.2624327,19.1895209 L39.2624327,21.2982863 Z M39.2624327,17.3027307 L37.4454684,17.3027307 L37.4454684,15.1939653 L39.2624327,15.1939653 L39.2624327,17.3027307 Z M39.2624327,13.3071752 L37.4454684,13.3071752 L37.4454684,11.1984098 L39.2624327,11.1984098 L39.2624327,13.3071752 Z M39.2624327,9.31161964 L37.4454684,9.31161964 L37.4454684,7.20285421 L39.2624327,7.20285421 L39.2624327,9.31161964 Z M39.2624327,5.81550853 L37.4454684,5.81550853 L37.4454684,3.70674309 L39.2624327,3.70674309 L39.2624327,5.81550853 Z" id="path-3" fill="#E6007D" fill-rule="nonzero" transform="translate(33.811540, 18.690076) rotate(45.000000) translate(-33.811540, -18.690076) "></path>
                            <path d="M70.2418422,65.7273845 C70.1952924,66.2501735 70.0493792,66.712083 69.804098,67.1131267 C69.5588168,67.5141703 69.2141751,67.827481 68.7701625,68.0530681 C68.3261498,68.2786551 67.7926265,68.391447 67.1695765,68.391447 C66.5286228,68.391447 65.9700346,68.2401627 65.4937953,67.9375895 C65.0175559,67.6350164 64.6505348,67.204438 64.3927211,66.6458415 C64.1349073,66.087245 64.0060023,65.4337684 64.0060023,64.6853923 L64.0060023,64.0677165 C64.0060023,63.3193404 64.1375928,62.6658638 64.4007777,62.1072673 C64.6639626,61.5486707 65.0381451,61.1171972 65.5233363,60.8128337 C66.0085275,60.5084702 66.5751722,60.3562907 67.2232875,60.3562907 C67.8355952,60.3562907 68.3583764,60.4699777 68.7916468,60.6973552 C69.2249172,60.9247326 69.5623976,61.241624 69.804098,61.6480388 C70.0457984,62.0544536 70.193502,62.5244196 70.2472132,63.0579509 L68.8614711,63.0579509 C68.8005984,62.5351618 68.6457334,62.1421807 68.3968714,61.8789958 C68.1480095,61.6158109 67.7568188,61.4842204 67.2232875,61.4842204 C66.6253027,61.4842204 66.1732402,61.7053282 65.8670863,62.1475505 C65.5609324,62.5897728 65.4078578,63.226241 65.4078578,64.0569743 L65.4078578,64.6853923 C65.4078578,65.5018026 65.5501903,66.1355853 65.8348597,66.5867595 C66.1195291,67.0379336 66.5644303,67.2635173 67.1695765,67.2635173 C67.5419742,67.2635173 67.845438,67.205331 68.0799769,67.0889567 C68.3145158,66.9725825 68.4917602,66.8024995 68.6117152,66.5787028 C68.7316702,66.3549061 68.813131,66.0711362 68.8561,65.7273845 L70.2418422,65.7273845 Z M84.9076623,64.5725993 C84.9076623,65.3532022 84.7724911,66.0308484 84.5021447,66.6055583 C84.2317983,67.1802682 83.8513496,67.6215887 83.3607873,67.9295329 C82.8702249,68.2374772 82.302685,68.391447 81.6581506,68.391447 C81.0207776,68.391447 80.455028,68.2374772 79.9608849,67.9295329 C79.4667418,67.6215887 79.0818173,67.179373 78.8060998,66.6028728 C78.5303822,66.0263725 78.3925256,65.3496214 78.3925256,64.5725993 L78.3925256,64.1805095 C78.3925256,63.4034874 78.5294871,62.7267363 78.8034142,62.150236 C79.0773414,61.5737358 79.4604756,61.130625 79.9528283,60.8208903 C80.445181,60.5111557 81.0100354,60.3562907 81.6474084,60.3562907 C82.2919428,60.3562907 82.8603779,60.5102605 83.3527306,60.8182048 C83.8450834,61.126149 84.2273224,61.5683647 84.4994591,62.1448649 C84.7715959,62.7213652 84.9076623,63.3999066 84.9076623,64.1805095 L84.9076623,64.5725993 Z M83.5111779,64.1697673 C83.5111779,63.3068072 83.3491515,62.6470645 83.0250939,62.1905192 C82.7010363,61.733974 82.2418124,61.5057048 81.6474084,61.5057048 C81.2642684,61.5057048 80.9330543,61.6077545 80.653756,61.8118571 C80.3744578,62.0159597 80.1605113,62.3176331 80.0119103,62.7168864 C79.8633093,63.1161397 79.7890099,63.6004285 79.7890099,64.1697673 L79.7890099,64.5725993 C79.7890099,65.1419381 79.8642045,65.627122 80.0145959,66.0281657 C80.1649872,66.4292094 80.380724,66.7326732 80.6618127,66.9385661 C80.9429013,67.1444591 81.2750106,67.247404 81.6581506,67.247404 C82.2525546,67.247404 82.7099881,67.0182396 83.030465,66.559904 C83.3509419,66.1015684 83.5111779,65.4391401 83.5111779,64.5725993 L83.5111779,64.1697673 Z M98.2683066,68.2840251 L94.8254355,62.7840251 L94.8254355,68.2840251 L93.4343222,68.2840251 L93.4343222,60.4637126 L94.8254355,60.4637126 L98.2790488,65.9744548 L98.2790488,60.4637126 L99.6594199,60.4637126 L99.6594199,68.2840251 L98.2683066,68.2840251 Z M114.12651,61.5862712 L111.693404,61.5862712 L111.693404,68.2840251 L110.307662,68.2840251 L110.307662,61.5862712 L107.901412,61.5862712 L107.901412,60.4637126 L114.12651,60.4637126 L114.12651,61.5862712 Z M127.471041,67.1668376 L127.471041,68.2840251 L122.341646,68.2840251 L122.341646,60.4637126 L127.438814,60.4637126 L127.438814,61.5862712 L123.732759,61.5862712 L123.732759,63.7078532 L126.92856,63.7078532 L126.92856,64.8035563 L123.732759,64.8035563 L123.732759,67.1668376 L127.471041,67.1668376 Z M140.595357,68.2840251 L137.152486,62.7840251 L137.152486,68.2840251 L135.761372,68.2840251 L135.761372,60.4637126 L137.152486,60.4637126 L140.606099,65.9744548 L140.606099,60.4637126 L141.98647,60.4637126 L141.98647,68.2840251 L140.595357,68.2840251 Z M156.45356,61.5862712 L154.020454,61.5862712 L154.020454,68.2840251 L152.634712,68.2840251 L152.634712,61.5862712 L150.228462,61.5862712 L150.228462,60.4637126 L156.45356,60.4637126 L156.45356,61.5862712 Z M177.352583,60.4637126 C177.943406,60.4637126 178.45455,60.5702382 178.88603,60.7832927 C179.31751,60.9963471 179.646039,61.2917543 179.871626,61.6695231 C180.097213,62.047292 180.210005,62.4778703 180.210005,62.9612712 C180.210005,63.4661565 180.098108,63.9012108 179.874311,64.266447 C179.650515,64.6316832 179.324672,64.9109773 178.896772,65.1043376 C178.468873,65.2976979 177.954148,65.3943767 177.352583,65.3943767 L175.741255,65.3943767 L175.741255,68.2840251 L174.350141,68.2840251 L174.350141,60.4637126 L177.352583,60.4637126 Z M177.352583,64.2771892 C177.850307,64.2771892 178.218223,64.1608166 178.456343,63.9280681 C178.694462,63.6953195 178.81352,63.3766378 178.81352,62.9720134 C178.81352,62.7213611 178.7616,62.4913015 178.657759,62.2818278 C178.553917,62.0723541 178.392786,61.9040615 178.17436,61.776945 C177.955935,61.6498285 177.682012,61.5862712 177.352583,61.5862712 L175.741255,61.5862712 L175.741255,64.2771892 L177.352583,64.2771892 Z M194.515962,68.2142009 L194.515962,68.2840251 L193.022797,68.2840251 L191.470551,65.2869548 L189.982758,65.2869548 L189.982758,68.2840251 L188.591645,68.2840251 L188.591645,60.4637126 L191.363129,60.4637126 C192.265478,60.4637126 192.962818,60.6660218 193.455171,61.0706462 C193.947523,61.4752706 194.193696,62.0589236 194.193696,62.8216228 C194.193696,63.3372503 194.070162,63.7740949 193.82309,64.1321696 C193.576019,64.4902443 193.225111,64.7659577 192.770356,64.9593181 L194.515962,68.2142009 Z M189.982758,64.1697673 L191.368501,64.1697673 C191.833998,64.1697673 192.189382,64.0533947 192.434663,63.8206462 C192.679944,63.5878976 192.802583,63.2781677 192.802583,62.891447 C192.802583,62.4796611 192.68442,62.159189 192.44809,61.9300212 C192.211761,61.7008534 191.850111,61.5862712 191.363129,61.5862712 L189.982758,61.5862712 L189.982758,64.1697673 Z M208.950825,64.5725993 C208.950825,65.3532022 208.815653,66.0308484 208.545307,66.6055583 C208.274961,67.1802682 207.894512,67.6215887 207.40395,67.9295329 C206.913387,68.2374772 206.345847,68.391447 205.701313,68.391447 C205.06394,68.391447 204.49819,68.2374772 204.004047,67.9295329 C203.509904,67.6215887 203.12498,67.179373 202.849262,66.6028728 C202.573545,66.0263725 202.435688,65.3496214 202.435688,64.5725993 L202.435688,64.1805095 C202.435688,63.4034874 202.572649,62.7267363 202.846577,62.150236 C203.120504,61.5737358 203.503638,61.130625 203.995991,60.8208903 C204.488343,60.5111557 205.053198,60.3562907 205.690571,60.3562907 C206.335105,60.3562907 206.90354,60.5102605 207.395893,60.8182048 C207.888246,61.126149 208.270485,61.5683647 208.542621,62.1448649 C208.814758,62.7213652 208.950825,63.3999066 208.950825,64.1805095 L208.950825,64.5725993 Z M207.55434,64.1697673 C207.55434,63.3068072 207.392314,62.6470645 207.068256,62.1905192 C206.744199,61.733974 206.284975,61.5057048 205.690571,61.5057048 C205.307431,61.5057048 204.976217,61.6077545 204.696918,61.8118571 C204.41762,62.0159597 204.203674,62.3176331 204.055073,62.7168864 C203.906472,63.1161397 203.832172,63.6004285 203.832172,64.1697673 L203.832172,64.5725993 C203.832172,65.1419381 203.907367,65.627122 204.057758,66.0281657 C204.20815,66.4292094 204.423886,66.7326732 204.704975,66.9385661 C204.986064,67.1444591 205.318173,67.247404 205.701313,67.247404 C206.295717,67.247404 206.75315,67.0182396 207.073627,66.559904 C207.394104,66.1015684 207.55434,65.4391401 207.55434,64.5725993 L207.55434,64.1697673 Z M223.605903,60.4637126 L220.802192,68.2840251 L219.443305,68.2840251 L216.650336,60.4637126 L218.175727,60.4637126 L220.120063,66.5491618 L222.075141,60.4637126 L223.605903,60.4637126 Z M231.756586,68.2840251 L231.756586,60.4637126 L233.142328,60.4637126 L233.142328,68.2840251 L231.756586,68.2840251 Z M244.311566,60.4637126 C245.006231,60.4637126 245.62032,60.6176824 246.153851,60.9256267 C246.687383,61.2335709 247.101848,61.6686252 247.39726,62.2308024 C247.692671,62.7929797 247.840375,63.4446659 247.840375,64.1858806 L247.840375,64.5672282 C247.840375,65.3120236 247.692671,65.964605 247.39726,66.5249919 C247.101848,67.0853788 246.683802,67.5186427 246.143109,67.8247966 C245.602416,68.1309505 244.974005,68.2840251 244.257855,68.2840251 L241.991254,68.2840251 L241.991254,60.4637126 L244.311566,60.4637126 Z M246.44389,64.1751384 C246.44389,63.3372436 246.261275,62.6962995 245.896039,62.2522868 C245.530803,61.8082742 245.00265,61.5862712 244.311566,61.5862712 L243.382367,61.5862712 L243.382367,67.1668376 L244.257855,67.1668376 C244.974005,67.1668376 245.517375,66.9403587 245.887982,66.4873942 C246.25859,66.0344297 246.44389,65.3943808 246.44389,64.5672282 L246.44389,64.1751384 Z M261.5018,67.1668376 L261.5018,68.2840251 L256.372406,68.2840251 L256.372406,60.4637126 L261.469574,60.4637126 L261.469574,61.5862712 L257.763519,61.5862712 L257.763519,63.7078532 L260.95932,63.7078532 L260.95932,64.8035563 L257.763519,64.8035563 L257.763519,67.1668376 L261.5018,67.1668376 Z M275.716449,68.2142009 L275.716449,68.2840251 L274.223285,68.2840251 L272.671039,65.2869548 L271.183246,65.2869548 L271.183246,68.2840251 L269.792132,68.2840251 L269.792132,60.4637126 L272.563617,60.4637126 C273.465965,60.4637126 274.163305,60.6660218 274.655658,61.0706462 C275.14801,61.4752706 275.394183,62.0589236 275.394183,62.8216228 C275.394183,63.3372503 275.270649,63.7740949 275.023578,64.1321696 C274.776506,64.4902443 274.425598,64.7659577 273.970843,64.9593181 L275.716449,68.2142009 Z M271.183246,64.1697673 L272.568988,64.1697673 C273.034485,64.1697673 273.389869,64.0533947 273.63515,63.8206462 C273.880431,63.5878976 274.00307,63.2781677 274.00307,62.891447 C274.00307,62.4796611 273.884907,62.159189 273.648578,61.9300212 C273.412248,61.7008534 273.050598,61.5862712 272.563617,61.5862712 L271.183246,61.5862712 L271.183246,64.1697673 Z" id="CONTENTPROVIDER" fill="#777777" fill-rule="nonzero"></path>
                        </g>
                    </g>
                </g>
            </g>
        </g>
    </g>
</svg>