<?xml version="1.0" encoding="UTF-8"?>
<svg width="19px" height="19px" viewBox="0 0 19 19" version="1.1" xmlns="http://www.w3.org/2000/svg" xmlns:xlink="http://www.w3.org/1999/xlink">
    <!-- Generator: Sketch 53 (72520) - https://sketchapp.com -->
    <title>ic/movie</title>
    <desc>Created with Sketch.</desc>
    <g id="ic/movie" stroke="none" stroke-width="1" fill="none" fill-rule="evenodd">
        <path d="M5.9,9.379155 L13.1,9.379155 L13.1,2 C13.1,1.7790861 13.2790861,1.6 13.5,1.6 C13.7209139,1.6 13.9,1.7790861 13.9,2 L13.9,9.379155 L17.1,9.379155 L17.1,2 C17.1,1.7790861 17.2790861,1.6 17.5,1.6 C17.7209139,1.6 17.9,1.7790861 17.9,2 L17.9,18 C17.9,18.2209139 17.7209139,18.4 17.5,18.4 C17.2790861,18.4 17.1,18.2209139 17.1,18 L17.1,10.179155 L13.9,10.179155 L13.9,18 C13.9,18.2209139 13.7209139,18.4 13.5,18.4 C13.2790861,18.4 13.1,18.2209139 13.1,18 L13.1,10.179155 L5.9,10.179155 L5.9,18 C5.9,18.2209139 5.7209139,18.4 5.5,18.4 C5.2790861,18.4 5.1,18.2209139 5.1,18 L5.1,10.179155 L1.9,10.179155 L1.9,18 C1.9,18.2209139 1.7209139,18.4 1.5,18.4 C1.2790861,18.4 1.1,18.2209139 1.1,18 L1.1,2 C1.1,1.7790861 1.2790861,1.6 1.5,1.6 C1.7209139,1.6 1.9,1.7790861 1.9,2 L1.9,9.379155 L5.1,9.379155 L5.1,2 C5.1,1.7790861 5.2790861,1.6 5.5,1.6 C5.7209139,1.6 5.9,1.7790861 5.9,2 L5.9,9.379155 Z M15.1,1.1857185 C15.1,0.964804603 15.2790861,0.785718503 15.5,0.785718503 C15.7209139,0.785718503 15.9,0.964804603 15.9,1.1857185 L15.9,2.86661801 C15.9,3.08753191 15.7209139,3.26661801 15.5,3.26661801 C15.2790861,3.26661801 15.1,3.08753191 15.1,2.86661801 L15.1,1.1857185 Z M15.1,13 C15.1,12.7790861 15.2790861,12.6 15.5,12.6 C15.7209139,12.6 15.9,12.7790861 15.9,13 L15.9,14.6808995 C15.9,14.9018134 15.7209139,15.0808995 15.5,15.0808995 C15.2790861,15.0808995 15.1,14.9018134 15.1,14.6808995 L15.1,13 Z M3.1,1.1857185 C3.1,0.964804603 3.2790861,0.785718503 3.5,0.785718503 C3.7209139,0.785718503 3.9,0.964804603 3.9,1.1857185 L3.9,2.86661801 C3.9,3.08753191 3.7209139,3.26661801 3.5,3.26661801 C3.2790861,3.26661801 3.1,3.08753191 3.1,2.86661801 L3.1,1.1857185 Z M3.1,13 C3.1,12.7790861 3.2790861,12.6 3.5,12.6 C3.7209139,12.6 3.9,12.7790861 3.9,13 L3.9,14.6808995 C3.9,14.9018134 3.7209139,15.0808995 3.5,15.0808995 C3.2790861,15.0808995 3.1,14.9018134 3.1,14.6808995 L3.1,13 Z M15.1,5.1857185 C15.1,4.9648046 15.2790861,4.7857185 15.5,4.7857185 C15.7209139,4.7857185 15.9,4.9648046 15.9,5.1857185 L15.9,6.86661801 C15.9,7.08753191 15.7209139,7.26661801 15.5,7.26661801 C15.2790861,7.26661801 15.1,7.08753191 15.1,6.86661801 L15.1,5.1857185 Z M15.1,17 C15.1,16.7790861 15.2790861,16.6 15.5,16.6 C15.7209139,16.6 15.9,16.7790861 15.9,17 L15.9,18.6808995 C15.9,18.9018134 15.7209139,19.0808995 15.5,19.0808995 C15.2790861,19.0808995 15.1,18.9018134 15.1,18.6808995 L15.1,17 Z M3.1,5.1857185 C3.1,4.9648046 3.2790861,4.7857185 3.5,4.7857185 C3.7209139,4.7857185 3.9,4.9648046 3.9,5.1857185 L3.9,6.86661801 C3.9,7.08753191 3.7209139,7.26661801 3.5,7.26661801 C3.2790861,7.26661801 3.1,7.08753191 3.1,6.86661801 L3.1,5.1857185 Z M3.1,17 C3.1,16.7790861 3.2790861,16.6 3.5,16.6 C3.7209139,16.6 3.9,16.7790861 3.9,17 L3.9,18.6808995 C3.9,18.9018134 3.7209139,19.0808995 3.5,19.0808995 C3.2790861,19.0808995 3.1,18.9018134 3.1,18.6808995 L3.1,17 Z" id="Combined-Shape" fill="#FFFFFF" fill-rule="nonzero"></path>
    </g>
</svg>