<?xml version="1.0" encoding="UTF-8"?>
<svg width="50px" height="50px" viewBox="0 0 50 50" version="1.1" xmlns="http://www.w3.org/2000/svg" xmlns:xlink="http://www.w3.org/1999/xlink">
    <!-- Generator: sketchtool 54.1 (76490) - https://sketchapp.com -->
    <title>C681A7E2-8FE8-49B8-B88A-1FB18B79E776@1.00x</title>
    <desc>Created with sketchtool.</desc>
    <g id="Dashboard" stroke="none" stroke-width="1" fill="none" fill-rule="evenodd">
        <g transform="translate(-707.000000, -240.000000)" fill="#7BDAA5" fill-rule="nonzero" id="noun_Video_68841">
            <g transform="translate(707.000000, 240.000000)">
                <path d="M19.7916667,35.6645833 C19.6208333,35.6645833 19.4520833,35.6229167 19.2979167,35.5375 C18.9604167,35.3604167 18.75,35.00625 18.75,34.6229167 L18.75,15.3770833 C18.75,14.99375 18.9604167,14.6395833 19.2979167,14.4645833 C19.6333333,14.28125 20.04375,14.2979167 20.3645833,14.5104167 L34.9479167,24.1333333 C35.2395833,24.325 35.4166667,24.65 35.4166667,25 C35.4166667,25.35 35.2416667,25.6791667 34.9479167,25.8708333 L20.3645833,35.49375 C20.1916667,35.6083333 19.9916667,35.6645833 19.7916667,35.6645833 L19.7916667,35.6645833 Z M20.8333333,17.3145833 L20.8333333,32.6916667 L32.4833333,25.00625 L20.8333333,17.3145833 Z" id="Shape"></path>
                <path d="M25,2.08333333 C37.6333333,2.08333333 47.9166667,12.3666667 47.9166667,25 C47.9166667,37.6333333 37.6333333,47.9166667 25,47.9166667 C12.3645833,47.9166667 2.08333333,37.6333333 2.08333333,25 C2.08333333,12.3666667 12.3645833,2.08333333 25,2.08333333 Z M25,0 C11.19375,0 0,11.19375 0,25 C0,38.80625 11.19375,50 25,50 C38.80625,50 50,38.80625 50,25 C50,11.19375 38.80625,0 25,0 L25,0 Z" id="Shape"></path>
            </g>
        </g>
    </g>
</svg>