<?xml version="1.0" encoding="UTF-8"?>
<svg width="50px" height="50px" viewBox="0 0 50 50" version="1.1" xmlns="http://www.w3.org/2000/svg" xmlns:xlink="http://www.w3.org/1999/xlink">
    <!-- Generator: Sketch 53 (72520) - https://sketchapp.com -->
    <title>noun_Video_68841</title>
    <desc>Created with Sketch.</desc>
    <g id="Dashboard" stroke="none" stroke-width="1" fill="none" fill-rule="evenodd">
        <g id="Dashboard-" transform="translate(-707.000000, -240.000000)" fill-rule="nonzero">
            <g id="noun_Video_68841" transform="translate(707.000000, 240.000000)">
                <path d="M25,-5.68434189e-14 C38.7818182,-5.68434189e-14 50,11.2181818 50,25 C50,38.7818182 38.7818182,50 25,50 C11.2159091,50 0,38.7818182 0,25 C0,11.2181818 11.2159091,-5.68434189e-14 25,-5.68434189e-14 Z" id="Shape" fill="#E2FFEF"></path>
                <path d="M20.0416667,36.3264457 C19.8708333,36.3264457 19.7020833,36.2847791 19.5479167,36.1993624 C19.2104167,36.0222791 19,35.6681124 19,35.2847791 L19,16.0389457 C19,15.6556124 19.2104167,15.3014457 19.5479167,15.1264457 C19.8833333,14.9431124 20.29375,14.9597791 20.6145833,15.1722791 L35.1979167,24.7951957 C35.4895833,24.9868624 35.6666667,25.3118624 35.6666667,25.6618624 C35.6666667,26.0118624 35.4916667,26.3410291 35.1979167,26.5326957 L20.6145833,36.1556124 C20.4416667,36.2701957 20.2416667,36.3264457 20.0416667,36.3264457 L20.0416667,36.3264457 Z M21.0833333,17.9764457 L21.0833333,33.3535291 L32.7333333,25.6681124 L21.0833333,17.9764457 Z" id="Shape" fill="#7BDAA5"></path>
            </g>
        </g>
    </g>
</svg>