<?xml version="1.0" encoding="UTF-8"?>
<svg width="50px" height="50px" viewBox="0 0 50 50" version="1.1" xmlns="http://www.w3.org/2000/svg" xmlns:xlink="http://www.w3.org/1999/xlink">
    <!-- Generator: Sketch 53 (72520) - https://sketchapp.com -->
    <title>noun_Video_68841 Copy 4</title>
    <desc>Created with Sketch.</desc>
    <g id="Dashboard" stroke="none" stroke-width="1" fill="none" fill-rule="evenodd">
        <g id="Dashboard-" transform="translate(-707.000000, -368.000000)" fill-rule="nonzero">
            <g id="noun_Video_68841-Copy-4" transform="translate(707.000000, 368.000000)">
                <g id="Group">
                    <path d="M25,-1.0658141e-14 C11.19375,-1.0658141e-14 -1.0658141e-14,11.19375 -1.0658141e-14,25 C-1.0658141e-14,38.80625 11.19375,50 25,50 C38.80625,50 50,38.80625 50,25 C50,11.19375 38.80625,-1.0658141e-14 25,-1.0658141e-14 L25,-1.0658141e-14 Z" id="Shape" fill="#FFF0F8"></path>
                    <path d="M19.3652093,24.3676279 C18.2573588,24.3676279 17.3262053,24.0333677 16.5717209,23.3648372 C15.8172365,22.6963067 15.44,21.4929699 15.44,19.7547907 C15.44,16.6222479 16.74839,15.056 19.3652093,15.056 C20.4539589,15.056 21.3803373,15.4045857 22.1443721,16.1017674 C22.9084069,16.7989492 23.2904186,18.0166115 23.2904186,19.7547907 C23.2904186,21.4738691 22.9084069,22.6724307 22.1443721,23.3505116 C21.3803373,24.0285925 20.4539589,24.3676279 19.3652093,24.3676279 Z M19.0213953,35.4842791 C18.8112858,35.4842791 18.6441557,35.4604033 18.52,35.4126512 C18.3958443,35.364899 18.3337674,35.3028221 18.3337674,35.2264186 C18.3337674,35.1309143 18.3719686,35.0354113 18.4483721,34.939907 L29.1352558,15.6003721 C29.3262645,15.2374555 29.7082762,15.056 30.2813023,15.056 L30.4245581,15.056 C30.6346677,15.056 30.8017978,15.0798757 30.9259535,15.1276279 C31.0501091,15.1753801 31.112186,15.237457 31.112186,15.3138605 C31.112186,15.3520622 31.0739849,15.4475651 30.9975814,15.6003721 L20.3106977,34.939907 C20.119689,35.3028235 19.7376773,35.4842791 19.1646512,35.4842791 L19.0213953,35.4842791 Z M19.3652093,22.791814 C20.7595729,22.791814 21.4567442,21.779483 21.4567442,19.7547907 C21.4567442,18.8379489 21.3230401,18.0834758 21.0556279,17.4913488 C20.7882157,16.8992218 20.2247485,16.6031628 19.3652093,16.6031628 C18.524771,16.6031628 17.9756292,16.8992218 17.7177674,17.4913488 C17.4599057,18.0834758 17.3309767,18.8379489 17.3309767,19.7547907 C17.3309767,20.6525316 17.4646808,21.383129 17.732093,21.9466047 C17.9995052,22.5100803 18.5438719,22.791814 19.3652093,22.791814 Z M29.9947907,35.4269767 C28.8869402,35.4269767 27.9557867,35.0927165 27.2013023,34.424186 C26.4468179,33.7556556 26.0695814,32.5523188 26.0695814,30.8141395 C26.0695814,27.6815967 27.3779714,26.1153488 29.9947907,26.1153488 C31.0835403,26.1153488 32.0099187,26.4639345 32.7739535,27.1611163 C33.5379883,27.8582981 33.92,29.0759603 33.92,30.8141395 C33.92,32.5332179 33.5379883,33.7317796 32.7739535,34.4098605 C32.0099187,35.0879414 31.0835403,35.4269767 29.9947907,35.4269767 Z M29.9947907,33.8511628 C31.3891543,33.8511628 32.0863256,32.8388318 32.0863256,30.8141395 C32.0863256,29.8972977 31.9526215,29.1428247 31.6852093,28.5506977 C31.4177971,27.9585707 30.8543299,27.6625116 29.9947907,27.6625116 C29.1543524,27.6625116 28.6052106,27.9585707 28.3473488,28.5506977 C28.0894871,29.1428247 27.9605581,29.8972977 27.9605581,30.8141395 C27.9605581,31.7118805 28.0942622,32.4424778 28.3616744,33.0059535 C28.6290866,33.5694292 29.1734533,33.8511628 29.9947907,33.8511628 Z" id="%" fill="#FF88C9"></path>
                </g>
            </g>
        </g>
    </g>
</svg>