<?xml version="1.0" encoding="UTF-8"?>
<svg width="35px" height="35px" viewBox="0 0 35 35" version="1.1" xmlns="http://www.w3.org/2000/svg" xmlns:xlink="http://www.w3.org/1999/xlink">
    <!-- Generator: Sketch 53 (72520) - https://sketchapp.com -->
    <title>profile photo</title>
    <desc>Created with Sketch.</desc>
    <g id="Series" stroke="none" stroke-width="1" fill="none" fill-rule="evenodd">
        <g id="Series-/-Add-Series-/-Trailer-uploaded-" transform="translate(-1140.000000, -8.000000)">
            <g id="profile-photo" transform="translate(1140.000000, 8.000000)">
                <circle id="Oval" fill="#E0E0E0" cx="17.5" cy="17.5" r="17.5"></circle>
                <path d="M12.2916038,27.44 L7.07,30.2882075 C6.76358491,30.455283 6.48820755,30.6606604 6.23198113,30.8845283 C9.27632075,33.4514151 13.2062264,35 17.5,35 C21.7620755,35 25.6668868,33.4745283 28.7026415,30.9426415 C28.4226415,30.7062264 28.1188679,30.4935849 27.7820755,30.3258491 L22.1906604,27.5304717 C21.4682075,27.1692453 21.0118868,26.4309434 21.0118868,25.6233019 L21.0118868,23.4295283 C21.1690566,23.250566 21.3486792,23.0207547 21.5408491,22.7493396 C22.3029245,21.6729245 22.879434,20.4888679 23.2789623,19.2466981 C23.5800641,18.6538273 23.8001899,15.7554311 23.9393396,10.5515094 C23.9393396,10.5515094 23.4936149,5.28367925 17.5006604,5.28367925 C11.5077058,5.28367925 11.0619811,10.5515094 11.0619811,10.5515094 C10.704816,13.8013097 10.7796588,16.6338883 11.2865094,19.0492453 C11.8716038,21.5963208 13.4036792,23.4295283 13.4036792,23.4295283 L13.4036792,25.5691509 C13.4030189,26.3483962 12.9764151,27.0662264 12.2916038,27.44 Z" id="Shape" fill="#FFFFFF" fill-rule="nonzero"></path>
            </g>
        </g>
    </g>
</svg>