<?xml version="1.0" encoding="UTF-8"?>
<svg width="18px" height="18px" viewBox="0 0 18 18" version="1.1" xmlns="http://www.w3.org/2000/svg" xmlns:xlink="http://www.w3.org/1999/xlink">
    <!-- Generator: Sketch 54.1 (76490) - https://sketchapp.com -->
    <title>noun_Search_857931 Copy</title>
    <desc>Created with Sketch.</desc>
    <g id="Analytics" stroke="none" stroke-width="1" fill="none" fill-rule="evenodd">
        <g transform="translate(-276.000000, -160.000000)" fill="#979797" fill-rule="nonzero" id="noun_Search_857931-Copy">
            <g transform="translate(275.000000, 159.000000)">
                <path d="M18.852,18.062 L14.244,13.454 C15.385,12.131 16.078,10.411 16.078,8.531 C16.078,4.369 12.692,0.984 8.531,0.984 C4.37,0.984 0.984,4.37 0.984,8.531 C0.984,12.692 4.37,16.078 8.531,16.078 C10.411,16.078 12.131,15.385 13.454,14.244 L18.062,18.852 C18.171,18.961 18.314,19.016 18.457,19.016 C18.6,19.016 18.743,18.961 18.852,18.852 C19.071,18.634 19.071,18.28 18.852,18.062 Z M8.531,14.96 C4.986,14.96 2.102,12.076 2.102,8.531 C2.102,4.986 4.986,2.102 8.531,2.102 C12.076,2.102 14.96,4.986 14.96,8.531 C14.96,12.076 12.076,14.96 8.531,14.96 Z" id="Shape"></path>
            </g>
        </g>
    </g>
</svg>