<?xml version="1.0" encoding="UTF-8"?>
<svg width="19px" height="19px" viewBox="0 0 19 19" version="1.1" xmlns="http://www.w3.org/2000/svg" xmlns:xlink="http://www.w3.org/1999/xlink">
    <!-- Generator: Sketch 53 (72520) - https://sketchapp.com -->
    <title>ic/serials</title>
    <desc>Created with Sketch.</desc>
    <g id="ic/serials" stroke="none" stroke-width="1" fill="none" fill-rule="evenodd">
        <path d="M3,1.4 C2.1163444,1.4 1.4,2.1163444 1.4,3 L1.4,13 C1.4,13.8836556 2.1163444,14.6 3,14.6 L14,14.6 C14.8836556,14.6 15.6,13.8836556 15.6,13 L15.6,3 C15.6,2.1163444 14.8836556,1.4 14,1.4 L3,1.4 Z M3,0.6 L14,0.6 C15.3254834,0.6 16.4,1.6745166 16.4,3 L16.4,13 C16.4,14.3254834 15.3254834,15.4 14,15.4 L3,15.4 C1.6745166,15.4 0.6,14.3254834 0.6,13 L0.6,3 C0.6,1.6745166 1.6745166,0.6 3,0.6 Z" id="Rectangle" fill="#FFFFFF" fill-rule="nonzero"></path>
        <path d="M17.7163661,4.4 C17.4954522,4.4 17.3163661,4.2209139 17.3163661,4 C17.3163661,3.7790861 17.4954522,3.6 17.7163661,3.6 C18.4141316,3.6 18.9797824,4.16565075 18.9797824,4.86341632 L18.9797824,16 C18.9797824,17.3254834 17.9052658,18.4 16.5797824,18.4 L3.93748184,18.4 C3.19881102,18.4 2.6,17.801189 2.6,17.0625182 C2.6,16.8416043 2.7790861,16.6625182 3,16.6625182 C3.2209139,16.6625182 3.4,16.8416043 3.4,17.0625182 C3.4,17.3593612 3.64063882,17.6 3.93748184,17.6 L16.5797824,17.6 C17.463438,17.6 18.1797824,16.8836556 18.1797824,16 L18.1797824,4.86341632 C18.1797824,4.60747855 17.9723038,4.4 17.7163661,4.4 Z" id="Rectangle-Copy-3" fill="#FFFFFF" fill-rule="nonzero"></path>
        <path d="M5.65,6.32189534 C5.65,6.21837278 5.67472646,6.11634748 5.72212131,6.02431136 C5.8864724,5.70515777 6.27843039,5.57966556 6.59758398,5.74401665 L10.0049769,7.49868517 C10.1253136,7.56065366 10.2233031,7.65864318 10.2852716,7.77897988 C10.4496227,8.09813346 10.3241305,8.49009145 10.0049769,8.65444254 L6.59758398,10.4091111 C6.50554785,10.4565059 6.40352256,10.4812324 6.3,10.4812324 C5.94101491,10.4812324 5.65,10.1902175 5.65,9.83123237 L5.65,6.32189534 Z M6.35,9.74924423 L9.59818007,8.07656385 L6.35,6.40388348 L6.35,9.74924423 Z" id="Path-4" fill="#FFFFFF" fill-rule="nonzero"></path>
    </g>
</svg>