<?xml version="1.0" encoding="UTF-8"?>
<svg width="28px" height="28px" viewBox="0 0 28 28" version="1.1" xmlns="http://www.w3.org/2000/svg" xmlns:xlink="http://www.w3.org/1999/xlink">
    <!-- Generator: Sketch 53 (72520) - https://sketchapp.com -->
    <title>ic / videofile</title>
    <desc>Created with Sketch.</desc>
    <g id="ic-/-videofile" stroke="none" stroke-width="1" fill="none" fill-rule="evenodd">
        <g id="noun_Video-File_1251503" transform="translate(3.000000, 1.000000)" fill="#000000" fill-rule="nonzero">
            <path d="M21.7546154,7.80276626 C21.7543654,7.22209625 21.5213738,6.66479144 21.1058974,6.25106407 L15.4958974,0.661063855 C15.0710488,0.239698825 14.4924522,0.0017868237 13.8882051,0 L2.50461538,0 C1.25843441,-2.45666381e-16 0.248205128,0.990689102 0.248205128,2.21276604 L0.248205128,23.787235 C0.248205128,25.0093119 1.25843441,26.000001 2.50461538,26.000001 L19.4982051,26.000001 C20.7443861,26.000001 21.7546154,25.0093119 21.7546154,23.787235 L21.7546154,7.80276626 Z M19.9128205,6.63829813 L16.1135897,6.63829813 C15.4904993,6.63829813 14.9853846,6.14295358 14.9853846,5.53191511 L14.9853846,1.72872347 L19.9128205,6.63829813 Z M20.6264103,23.787235 C20.6264103,24.3982734 20.1212956,24.893618 19.4982051,24.893618 L2.50461538,24.893618 C1.8815249,24.893618 1.37641026,24.3982734 1.37641026,23.787235 L1.37641026,2.21276604 C1.37641026,1.60172757 1.8815249,1.10638302 2.50461538,1.10638302 L13.8571795,1.10638302 L13.8571795,5.53191511 C13.8571795,6.75399205 14.8674088,7.74468115 16.1135897,7.74468115 L20.6264103,7.74468115 C20.6264103,7.76404285 20.6264103,7.78340455 20.6264103,7.80276626 L20.6264103,23.787235 Z" id="Shape"></path>
            <path d="M9.34846154,10.7319153 C9.01141273,10.4584211 8.54352059,10.4006595 8.14786693,10.5837011 C7.75221327,10.7667427 7.50012822,11.1575879 7.50102564,11.5865962 L7.50102564,18.5651071 C7.50059579,18.9933186 7.75217774,19.3833234 8.14692308,19.5663837 C8.54176207,19.7490846 9.00864965,19.6919872 9.34564103,19.419788 L13.6666667,15.9291495 C13.9263479,15.7189735 14.0767327,15.4060408 14.0767327,15.0758516 C14.0767327,14.7456625 13.9263479,14.4327298 13.6666667,14.2225537 L9.34846154,10.7319153 Z M8.62923077,18.5678731 L8.62923077,11.5838302 L12.9446154,15.0744687 L8.62923077,18.5678731 Z" id="Shape"></path>
        </g>
    </g>
</svg>