<?xml version="1.0" encoding="UTF-8"?>
<svg width="50px" height="50px" viewBox="0 0 50 50" version="1.1" xmlns="http://www.w3.org/2000/svg" xmlns:xlink="http://www.w3.org/1999/xlink">
    <!-- Generator: Sketch 54.1 (76490) - https://sketchapp.com -->
    <title>Group 5</title>
    <desc>Created with Sketch.</desc>
    <g id="Analytics" stroke="none" stroke-width="1" fill="none" fill-rule="evenodd">
        <g transform="translate(-1251.000000, -300.000000)" fill-rule="nonzero" id="Group-5">
            <g transform="translate(1251.000000, 300.000000)">
                <path d="M25,0 C11.19375,0 0,11.19375 0,25 C0,38.80625 11.19375,50 25,50 C38.80625,50 50,38.80625 50,25 C50,11.19375 38.80625,0 25,0 L25,0 Z" id="Combined-Shape" fill="#EDFAFF"></path>
                <path d="M21.2108135,29.0474754 C18.7038313,27.6967216 17,25.0473364 17,22 C17,17.581722 20.581722,14 25,14 C29.418278,14 33,17.581722 33,22 C33,25.0473364 31.2961687,27.6967216 28.7891865,29.0474754 C32.2815156,30.1557867 34.6964241,32.9394705 35.9627268,37.3312256 C36.1007694,37.8099813 35.8434498,38.3157182 35.3879873,38.4608206 C34.9325247,38.605923 34.4513937,38.3354436 34.313351,37.8566879 C32.8478339,32.7740229 29.7990312,30.3116076 25,30.3116076 C20.2009688,30.3116076 17.1521661,32.7740229 15.686649,37.8566879 C15.5486063,38.3354436 15.0674753,38.605923 14.6120127,38.4608206 C14.1565502,38.3157182 13.8992306,37.8099813 14.0372732,37.3312256 C15.3035759,32.9394705 17.7184844,30.1557867 21.2108135,29.0474754 Z M25,28.3157895 C28.4881142,28.3157895 31.3157895,25.4881142 31.3157895,22 C31.3157895,18.5118858 28.4881142,15.6842105 25,15.6842105 C21.5118858,15.6842105 18.6842105,18.5118858 18.6842105,22 C18.6842105,25.4881142 21.5118858,28.3157895 25,28.3157895 Z" id="Combined-Shape" fill="#88D2F1"></path>
            </g>
        </g>
    </g>
</svg>